<svg width="371" height="82" viewBox="0 0 371 82" fill="none" xmlns="http://www.w3.org/2000/svg">
<g clip-path="url(#clip0_12_86)">
<mask id="mask0_12_86" style="mask-type:alpha" maskUnits="userSpaceOnUse" x="0" y="1" width="371" height="82">
<path d="M0 1H370.64V83H0V1Z" fill="white"/>
</mask>
<g mask="url(#mask0_12_86)">
<path fill-rule="evenodd" clip-rule="evenodd" d="M0 53.9245L54.5131 1V18.7778C54.5131 19.806 54.0925 20.792 53.3437 21.5189L9.98256 63.6163L0 53.9245ZM16.679 70.1175L54.5131 33.3858V51.1638C54.5131 52.1918 54.0925 53.1778 53.3437 53.9047L36.6446 70.1175L39.9308 73.308L49.9136 83H29.9481L26.6616 79.8093L16.679 70.1175ZM360.948 53.8369L370.64 60.5223C366.089 66.3563 358.99 70.1089 351.015 70.1089C337.278 70.1089 326.143 58.9799 326.143 45.2516C326.143 31.5234 337.278 20.3946 351.015 20.3946C358.99 20.3946 366.089 24.147 370.64 29.9812L360.948 36.6665C358.562 33.7673 354.995 31.9211 351.015 31.9211C343.847 31.9211 338.016 37.9011 338.016 45.2516C338.016 52.6022 343.847 58.5824 351.015 58.5824C354.995 58.5824 358.562 56.7362 360.948 53.8369ZM98.2016 40.5287H118.253L114.422 51.466H98.2016V70.1087H86.4974V20.3948H125.304L121.474 31.3319H98.2016V40.5287ZM263.783 20.3948H301.822V31.3319H288.655V70.1087H276.95V31.3319H263.783V20.3948ZM306.878 70.1089H318.857V20.3948H306.878V70.1089ZM236.63 51.4217L242.556 33.3915L248.481 51.4217H236.63ZM235.094 20.3948L217.684 70.1087H230.486L233.026 62.3589H252.086L254.626 70.1087H267.427L250.017 20.3948H235.094ZM201.299 20.3948H213.004V70.1087H204.225L184.474 43.1212V70.1087H172.77V20.3948H181.548L201.299 47.3823V20.3948ZM137.292 51.4217L143.218 33.3915L149.144 51.4217H137.292ZM135.757 20.3948L118.346 70.1087H131.148L133.688 62.3589H152.748L155.288 70.1087H168.09L150.679 20.3948H135.757Z" fill="white"/>
</g>
</g>
<defs>
<clipPath id="clip0_12_86">
<rect width="370.64" height="81.098" fill="white" transform="translate(0 0.0322266)"/>
</clipPath>
</defs>
</svg>
