<svg width="16" height="14" fill="none" xmlns="http://www.w3.org/2000/svg"><path d="M13.822 13.333c1.424 0 2.178-.754 2.178-2.177v-6.83c0-1.424-.754-2.184-2.178-2.184h-1.643c-.496 0-.67-.085-.992-.416l-.51-.533c-.341-.358-.69-.526-1.34-.526h-2.7c-.65 0-.999.168-1.34.526l-.51.533c-.321.331-.495.416-.998.416H2.184C.76 2.142 0 2.902 0 4.325v6.831c0 1.423.76 2.177 2.184 2.177h11.638zm-5.819-2.112c-1.914 0-3.454-1.547-3.454-3.49 0-1.937 1.54-3.49 3.454-3.49 1.914 0 3.448 1.553 3.448 3.49 0 1.943-1.534 3.49-3.448 3.49zM12.74 6.23a.882.882 0 01-.882-.884.9.9 0 01.882-.884.9.9 0 01.877.884.89.89 0 01-.877.884zM8.003 9.928a2.175 2.175 0 002.172-2.197 2.18 2.18 0 00-2.172-2.197 2.18 2.18 0 00-2.171 2.197 2.18 2.18 0 002.171 2.197z" fill="#fff"/></svg>