<svg width="1440" height="393" fill="none" xmlns="http://www.w3.org/2000/svg"><path d="M0 0h1440v393H0V0z" fill="#375C58"/><path fill-rule="evenodd" clip-rule="evenodd" d="M182.458 390.021c2.995.794 5.779 1.745 8.486 2.657l.941.322h-3.015c-2.38-.817-4.857-1.627-7.449-2.319-13.114-3.458-30.951-4.071-53.05-1.815-6.547.668-13.113 1.525-19.469 2.35-4.704.605-9.504 1.234-14.342 1.784h-7.565c7.239-.7 14.362-1.627 21.331-2.531 6.375-.833 12.98-1.69 19.584-2.366 22.618-2.311 40.973-1.666 54.548 1.918zm62.956-41.98c3.149 1.957 4.532 4.252 5.876 6.476.403.676.806 1.345 1.248 2.005 6.028 8.85 21.6 15.877 40.646 18.353 4.666.605 9.6.959 14.362 1.297 3.667.259 7.468.526 11.155.911 10.464 1.093 18.086 3.105 22.022 5.825 4.704 3.254 3.802 6.901 1.056 10.092h-2.016c2.765-3.073 3.802-6.595-.691-9.691-4.646-3.207-13.901-4.74-20.851-5.463-3.61-.377-7.373-.645-11.002-.904-4.838-.338-9.83-.692-14.611-1.313-19.661-2.554-35.731-9.793-41.914-18.895a33.555 33.555 0 01-1.267-2.028c-1.305-2.154-2.649-4.394-5.606-6.233-7.085-4.386-21.754-5.51-33.139-4.669-10.347.764-19.904 2.843-29.112 4.962l-2.204.509-3.244.739C134.304 359.571 71.501 370.127 0 369.491v-.778c71.098.636 133.574-9.873 175.2-19.383l3.206-.747c10.042-2.311 20.429-4.708 31.93-5.549 12.019-.888 27.514.322 35.078 5.007zm93.504-129.195c25.824 2.696 54.644 9.605 58.08 20.915 1.728 5.715-3.436 11.225-7.987 16.09l-27.552 29.428c-9.427 10.068-20.102 21.473-15.59 32.807 4.915 12.317 29.107 22.849 58.809 25.616 8.852.825 18.394 1.038 27.629 1.25 16.589.369 33.735.754 47.885 4.645 22.214 6.107 26.534 17.96 27.13 24.484.71 7.994-3.015 14.03-11.424 18.463-.288.149-.576.307-.903.456h-7.603a82.798 82.798 0 003.955-1.902c7.546-3.977 10.887-9.519 10.215-16.931-.557-6.075-4.474-17.087-24.576-22.613-12.826-3.529-28.455-3.875-45.005-4.252-9.466-.212-19.258-.432-28.57-1.297-31.949-2.979-57.945-14.297-63.225-27.541-4.762-11.955 6.681-24.193 15.897-34.034l27.552-29.42c4.301-4.606 9.197-9.825 7.642-14.958-3.072-10.131-29.799-16.419-53.779-18.919-54.041-5.643-110.769-1.035-165.048 5.011l-3.575.401-3.568.404-1.781.203-3.556.409-3.548.41c-29.587 3.435-56.025 6.76-79.872 12.742-5.913 1.477-11.75 3.151-17.395 4.771-11.213 3.222-22.81 6.547-35.904 8.638-7.027 1.124-15.11 1.823-23.251 1.894v-2.35c7.373-.071 14.765-.715 21.158-1.737 12.442-1.989 23.75-5.235 34.695-8.371 5.721-1.643 11.616-3.341 17.683-4.858 24.46-6.123 52.416-9.644 81.312-13 4.187-.486 8.391-.969 12.612-1.445l3.621-.405c54.982-6.121 112.539-10.776 167.837-5.004zm557.626 105.686c8.755 1.611 15.264 5.572 16.954 10.343 1.301 3.673 0 7.382-1.574 11.005l-.435.986-.219.491-.076.165c-6.624 14.777-12.173 31.432 2.054 45.478h-2.054c-14.055-14.179-8.506-30.827-1.901-45.619l.077-.165c1.804-4.025 3.667-8.183 2.227-12.223-1.248-3.537-6.067-7.954-15.84-9.738-12.807-2.35-27.418.66-40.301 3.324l-1.363.283c-51.091 10.517-110.919 13.079-163.719 15.343-21.638.928-45.715 2.523-57.542 9.754-7.389 4.512-8.176 10.184-8.498 15.776l-.044.817-.021.409-.039.982c-.403 7.027-1.747 14.077-4.051 21.057h-1.939c2.304-6.988 3.667-14.046 4.07-21.073l.039-.982c.022-.406.043-.813.067-1.221l.052-.815c.374-5.439 1.432-10.911 8.77-15.39 12.288-7.514 36.864-9.149 58.944-10.092 52.628-2.256 112.282-4.81 163.047-15.272l1.363-.283c13.267-2.735 28.301-5.84 41.952-3.34zm-32.045 29.435c2.515 1.627 2.803 3.632 2.765 5.188-.077 3.498-2.246 6.964-4.55 10.634l-.41.654c-4.427 7.082-8.53 14.398 2.944 22.557h-2.208c-10.822-7.989-7.293-15.153-3.021-22.071l.415-.669.417-.667c2.266-3.624 4.416-7.043 4.493-10.446.038-1.454-.211-3.301-2.458-4.763-4.396-2.845-14.188-3.443-29.952-1.839-38.188 3.89-77.491 6.146-116.832 6.696-16.569.228-35.347.495-46.579 5.432-10.214 4.488-10.637 11.522-9.849 17.158l.211 1.478c.48 3.23.979 6.523.153 9.691h-1.958c.845-3.136.365-6.422-.115-9.644l-.211-1.478c-.807-5.793-.346-13.04 10.368-17.748 11.788-5.172 30.969-5.439 47.923-5.675 39.187-.55 78.374-2.79 116.429-6.673 6.124-.629 24.768-2.523 32.025 2.185zM361.306 207.795c26.688 3.01 45.062 7.058 57.811 12.749 10.31 4.598 32.697 17.999 17.721 42.931-4.339 7.2-10.828 14.242-17.126 21.065-6.47 6.995-13.152 14.234-17.434 21.615-2.169 3.718-3.82 8.001.192 11.609 2.65 2.366 7.68 4.433 15.399 6.327 13.058 3.206 28.249 4.782 43.123 6.207l3.072.294c17.126 1.635 34.848 3.324 49.651 7.372 21.312 5.825 35.77 16.538 39.648 29.389 2.592 8.575.672 17.19-2.361 25.647h-1.94c3.034-8.442 4.973-17.033 2.4-25.553-3.82-12.623-17.971-23.132-38.822-28.83-14.496-3.962-32.045-5.636-48.998-7.255-15.994-1.525-32.544-3.105-46.752-6.595-8.064-1.98-13.364-4.165-16.167-6.673-4.262-3.828-2.553-8.276-.307-12.12 4.32-7.428 11.021-14.69 17.491-21.717 6.279-6.791 12.768-13.818 17.05-20.971 14.765-24.562-7.162-37.704-17.261-42.216-12.48-5.572-30.566-9.55-56.909-12.513-76.243-8.599-163.584-4.999-274.848 11.319l-6.739.998-1.598.236-3.204.472C50.34 225.119 25.524 228.544 0 228.53v-.787c25.815.023 50.96-3.542 75.368-7.139l3.18-.469 6.758-.998c111.648-16.373 199.353-19.98 276-11.342zm1011.434-68.618c9.08.566 17.09 2.476 24.83 4.323 4.41 1.053 8.96 2.138 13.67 2.963 8.98 1.572 18.97 2.185 28.76 1.863v.786c-10.06.322-20.29-.306-29.51-1.926-4.82-.841-9.43-1.941-13.88-3.01-7.93-1.894-15.44-3.679-24.16-4.221-21.92-1.367-40.99 5.659-55.16 11.932-21.54 9.471-41.76 19.775-60.05 30.63-8.55 5.062-17.96 11.012-21.7 17.591-.9 1.587-1.56 3.325-2.04 5.455-.3 1.352-.51 2.735-.73 4.079-.25 1.596-.49 3.246-.92 4.865-4.57 17.811-30.43 35.237-69.19 46.618a283.153 283.153 0 01-11.81 3.175c-1.98.48-4 .959-6.03 1.447l-1.57.372-1.58.374-1.57.377-1.57.381c-11.21 2.743-21.77 5.833-26.43 10.71-5.45 5.683-.94 11.436 3.86 17.528 2.77 3.529 5.65 7.184 6.43 10.847.81 3.765-.61 7.569-2.28 11.122-.39.809-.79 1.627-1.19 2.436-.96 1.965-1.96 3.993-2.67 5.989-1.61 4.528-1.75 9.22-.38 13.968 4.53 15.72 25.01 30.284 54.81 38.962 17.28 5.054 36.19 9.723 57.47 14.187h-4.19c-20.02-4.268-37.94-8.732-54.39-13.543-30.24-8.803-51.02-23.58-55.61-39.52-1.38-4.81-1.24-9.573.39-14.164.71-2.02 1.71-4.055 2.69-6.036.4-.81.8-1.619 1.19-2.429 1.9-4.04 2.99-7.443 2.24-10.902-.76-3.576-3.61-7.192-6.33-10.681-4.69-5.95-9.53-12.113-3.84-18.055 5.46-5.688 18.31-8.982 31.19-12.046l1.58-.375.79-.186c2.02-.48 4.03-.959 6.01-1.439 3.95-.966 7.87-2.027 11.67-3.136 38.31-11.255 63.88-28.469 68.41-46.059.41-1.604.67-3.247.9-4.842.22-1.344.43-2.735.75-4.103.48-2.162 1.16-3.93 2.08-5.557 3.8-6.705 13.34-12.733 21.98-17.858 18.36-10.886 38.61-21.214 60.23-30.717 14.48-6.414 34.06-13.598 56.85-12.175zM275.405 325.663c4.07 3.05 4.301 6.571 4.531 9.983.134 2.224.288 4.519 1.498 6.657 3.379 5.966 14.572 11.106 35.27 16.192 13.19 3.246 27.187 5.997 41.626 8.198l3.801.566c15.975 2.397 34.099 5.116 41.357 11.562 4.282 3.82 3.917 8.677-.979 12.992-.461.401-.941.794-1.479 1.187h-2.208a19.977 19.977 0 001.94-1.517c4.665-4.111 5.03-8.725.979-12.332-6.912-6.155-23.866-8.693-40.282-11.154l-3.801-.573c-14.535-2.209-28.647-4.984-41.952-8.253-21.159-5.204-32.64-10.509-36.135-16.687-1.267-2.217-1.421-4.559-1.555-6.815-.23-3.474-.442-6.752-4.301-9.636-7.795-5.856-27.571-7.114-42.221-5.321-12.652 1.54-23.654 4.841-34.291 8.033-2.457.73-4.915 1.469-7.392 2.177-27.955 8.08-61.44 14.407-105.389 19.901-25.67 3.215-55.008 6.162-84.422 5.235v-.794c29.146.935 58.31-2.004 83.846-5.195 43.757-5.471 77.069-11.759 104.871-19.784 2.457-.715 4.896-1.446 7.353-2.177 10.772-3.231 21.908-6.571 34.868-8.151 15.379-1.879 36.172-.519 44.467 5.706zm544.051 47.223c1.69.708 2.112 1.714 2.304 2.515.768 3.317-1.21 6.689-3.11 9.959-1.556 2.641-3.034 5.188-3.13 7.64h-1.901c.096-2.586 1.651-5.235 3.168-7.829 1.863-3.199 3.802-6.516 3.072-9.691-.173-.676-.499-1.517-1.766-2.044-2.093-.88-5.779-.652-9.043-.377a553.833 553.833 0 01-48.941 2.004 982.958 982.958 0 01-7.027-.047c-12.576-.102-25.575-.212-37.037 1.792-6.663 1.164-11.309 2.924-13.075 4.944-1.076 1.242-1.152 2.61-1.229 3.93l-.423 7.318h-1.92l.423-7.333c.077-1.321.153-2.814 1.344-4.174 1.958-2.232 6.969-4.15 14.112-5.408 11.146-1.942 23.479-1.962 35.517-1.873l2.326.018c2.342.024 4.685.04 7.008.047 16.282.04 32.602-.628 48.518-1.98 2.727-.236 7.815-.668 10.81.589zm568.974-219.011c7.76.44 14.63 1.957 21.29 3.427 3.8.833 7.74 1.706 11.77 2.35 5.91.951 12.19 1.454 18.51 1.509v.786c-6.55-.055-13.09-.573-19.22-1.564-4.15-.668-8.12-1.54-11.96-2.389-6.82-1.501-13.25-2.916-20.66-3.341-18.47-1.053-35.04 4.638-47.39 9.715-19.29 7.939-37.05 16.593-52.76 25.703-7.35 4.275-15.51 9.306-19.04 14.989-.83 1.359-1.48 2.837-2 4.645-.35 1.21-.61 2.444-.88 3.639-.27 1.313-.58 2.672-.98 4.001-4.61 15.162-25.9 30.324-56.97 40.557-3.09 1.022-6.3 1.989-9.5 2.885-1.67.472-3.42.943-5.15 1.415l-.74.2-1.49.402-1.49.406c-9.41 2.579-18.49 5.41-22.66 9.744-4.37 4.519-1.93 9.052 1.11 13.814l.45.699c.08.117.15.233.23.35 1.94 2.979 3.91 6.068 4.3 9.165.38 3.254-1.04 6.445-2.5 9.448l-.79 1.556c-.92 1.839-1.88 3.749-2.55 5.628-1.34 3.828-1.46 7.836-.35 11.916 3.75 13.786 20.26 26.001 45.34 33.515 17.39 5.258 37.3 9.919 62.66 14.682 43.72 8.198 93.07 14.667 147.11 19.273h-9.15c-50.77-4.559-97.27-10.776-138.76-18.557-25.48-4.787-45.51-9.472-63-14.762-25.49-7.647-42.29-20.066-46.1-34.065-1.13-4.142-1.01-8.221.35-12.112.67-1.902 1.65-3.82 2.57-5.683l.79-1.548c1.44-2.948 2.82-6.092 2.46-9.251-.37-3.019-2.33-6.061-4.23-9l-.66-1.035-.44-.692c-2.82-4.504-4.98-9.117-.63-13.632 4.94-5.14 16.21-8.174 27.1-11.121 1.74-.464 3.47-.928 5.14-1.4 3.17-.888 6.32-1.847 9.39-2.853 30.66-10.108 51.71-25.081 56.26-40.039.4-1.32.69-2.672.98-3.977.25-1.194.51-2.436.88-3.655.54-1.847 1.17-3.356 2.05-4.747 3.61-5.816 11.87-10.925 19.32-15.249 15.78-9.156 33.6-17.834 52.97-25.812 12.67-5.203 29.68-11.043 49.02-9.935zM768.346 388.229c3.552 1.289 5.721 3.01 7.276 4.771h-2.054c-1.44-1.564-3.437-3.065-6.509-4.182-2.995-1.092-7.545-1.611-11.539-1.328-2.054.149-4.838.574-6.413 1.761-1.401 1.045-1.401 2.318-1.209 3.435l.057.314h-1.92l-.057-.259c-.192-1.227-.192-2.649 1.44-3.867 1.516-1.14 4.281-1.91 7.776-2.154 4.569-.33 9.715.267 13.152 1.509zm588.694-263.75c10.42.684 19.54 2.987 28.37 5.219 5.02 1.265 10.22 2.578 15.58 3.576 12.15 2.256 25.88 2.908 39.01 2.044v.801c-13.42.857-27.42.173-39.8-2.13-5.47-1.021-10.73-2.342-15.8-3.623l-.93-.234-1.87-.469c-7.8-1.949-15.9-3.817-24.85-4.406-12.21-.81-32.01-.212-62.96 14.156-24.15 11.216-46.81 23.179-67.33 35.551-10.16 6.123-20.39 12.725-24.35 20.184-1.88 3.537-2.28 7.231-2.67 10.808-.21 1.87-.42 3.812-.84 5.722-5.01 22.676-41.63 44.181-95.54 56.128-2.27.503-4.59.998-6.91 1.501l-1.7.363-1.69.365c-14.99 3.231-29.77 6.749-35.67 12.925-6.24 6.524-.32 13.166 5.92 20.2 3.63 4.08 7.37 8.3 8.6 12.537 1.54 5.384-1.09 10.8-3.65 16.034-1.02 2.107-2.07 4.284-2.84 6.422-7.16 19.996 11.46 41.029 47.17 54.847h-2.8c-35.17-14.007-53.43-34.993-46.27-54.957.77-2.162 1.84-4.347 2.86-6.469 2.53-5.172 5.13-10.524 3.61-15.783-1.19-4.142-4.9-8.324-8.49-12.364-6.08-6.861-12.38-13.951-5.91-20.75 5.92-6.201 20.16-9.768 34.86-12.971l1.7-.369 3.39-.729c2.33-.496 4.65-.999 6.92-1.494 53.33-11.821 89.56-33.09 94.54-55.507.4-1.886.61-3.82.82-5.691.41-3.607.81-7.333 2.71-10.933 4.03-7.601 14.38-14.274 24.63-20.46 20.59-12.403 43.3-24.389 67.49-35.629 31.59-14.667 52.05-15.248 64.69-14.415zm-407.082 172.59c.788 1.682-.019 3.364-.806 4.991-.518 1.061-1.037 2.153-1.114 3.215-.172 3.206 3.572 6.028 7.546 9.015 2.573 1.934 5.242 3.93 6.739 6.06 3.631 5.09.46 10.285-3.721 15.373l-.618.744c-.312.371-.628.742-.945 1.112l-.637.74-.319.368a167.04 167.04 0 00-2.63 3.129c-13.421 16.498-11.904 34.977 3.533 51.184h-2.074c-15.322-16.309-16.762-34.867-3.283-51.436.845-1.037 1.747-2.083 2.649-3.136 5.088-5.911 10.368-12.018 6.202-17.858-1.44-2.043-4.051-4.009-6.586-5.911-3.916-2.939-7.968-5.989-7.776-9.4.077-1.132.615-2.264 1.152-3.349.788-1.627 1.536-3.159.807-4.692-1.959-4.103-14.381-6.201-24.288-5.502-9.715.676-18.067 3.191-26.151 5.612l-1.593.48c-51.687 15.452-112.474 25.67-175.795 29.53-7.008.432-14.189.786-21.14 1.139-20.448 1.022-41.587 2.075-61.113 5.031-12.115 1.839-33.562 6.162-40.935 14.462-3.745 4.207-3.354 8.808-2.475 13.334l.188.935.195.932c.192.975.403 1.95.556 2.908 1.556 8.992-.23 18.11-5.184 26.921h-1.977c4.992-8.787 6.797-17.897 5.261-26.865a81.235 81.235 0 00-.576-2.893l-.195-.948c-.998-4.906-1.746-9.939 2.403-14.591 7.641-8.599 29.644-13.048 42.086-14.926 19.718-2.995 40.973-4.056 61.536-5.086 6.931-.346 14.093-.699 21.082-1.132 63.014-3.843 123.513-14.006 174.95-29.388l1.594-.48c8.256-2.475 16.8-5.038 26.976-5.753 10.982-.763 24.268 1.509 26.476 6.131zM470.918 0l-29.932 27.29c-3.514 3.183-7.469 6.799-7.296 10.422.192 4.504 6.316 8.41 12.806 12.537 2.611 1.658 5.299 3.372 7.565 5.125 6.144 4.755 9.235 9.95 11.251 13.951 7.392 14.77 7.642 30.41.672 45.219-.672 1.422-1.402 2.845-2.131 4.268-2.611 5.022-5.28 10.218-4.781 15.335.365 3.576 2.285 7.199 4.166 10.697 1.92 3.592 3.898 7.302 4.282 11.083.134 1.289.077 2.601.019 3.867-.115 3.222-.249 6.272 2.4 9.055 4.167 4.37 13.978 7.05 24.346 9.895 8.083 2.209 16.435 4.496 22.349 7.703 3.667 1.981 6.24 4.229 8.716 6.406 3.13 2.743 6.087 5.329 10.964 7.31 9.696 3.945 24.787 4.653 39.417 5.03 35.098.92 70.695 1.273 105.811 1.046 20.717-.126 40.8-.511 58.791-3.742 4.665-.841 9.273-1.902 13.728-2.916 7.142-1.635 14.515-3.325 22.656-4.276 19.449-2.263 40.397.063 57.235 1.926 43.738 4.85 88.109 10.902 107.942 26.59 6.317 4.999 9.562 10.706 12.711 16.216 5.011 8.756 9.734 17.024 25.689 22.18 4.34 1.4 9.524 2.539 14.535 3.64 9.371 2.059 19.061 4.189 24.361 8.158 6.05 4.528 4.13 9.645 2.25 14.588-.81 2.17-1.65 4.41-1.79 6.524-.25 4.473 2.67 8.764 5.78 13.299 2.1 3.082 4.27 6.265 5.34 9.511 2.92 8.772-2.3 17.489-7.35 25.907-3.9 6.531-7.95 13.283-8.1 19.972-.25 10.721 9.9 21.277 27.37 29.184h-7.58c-16.4-8.143-25.8-18.605-25.55-29.208.15-6.956 4.28-13.849 8.27-20.507 5.15-8.59 10-16.702 7.24-25.034-1.02-3.081-3.15-6.185-5.19-9.188-3.07-4.504-6.25-9.165-5.99-13.991.14-2.271 1.02-4.59 1.87-6.83 1.8-4.763 3.49-9.267-1.62-13.095-4.49-3.356-13.01-5.227-22.038-7.215-5.222-1.148-10.656-2.335-15.36-3.867-15.867-5.119-21.617-13.001-26.273-20.937l-.496-.85c-.327-.567-.651-1.134-.975-1.699-3.072-5.376-6.24-10.933-12.23-15.673-17.445-13.801-55.914-19.825-95.406-24.387l-2.549-.293a1809.12 1809.12 0 00-5.102-.574l-1.276-.142c-16.147-1.792-36.23-4.016-54.125-1.933-7.507.872-14.265 2.421-21.427 4.063-4.589 1.046-9.312 2.13-14.246 3.011-18.089 3.256-37.788 3.769-58.094 3.925l-2.905.021c-35.27.227-71.04-.126-106.272-1.046-15.724-.416-32.006-1.195-43.104-5.714-5.606-2.279-8.908-5.18-12.115-7.986-2.477-2.161-4.8-4.197-8.102-5.981-5.338-2.893-13.287-5.062-20.947-7.169-10.676-2.916-21.696-5.942-26.516-10.996-3.072-3.214-2.918-6.641-2.803-9.95.058-1.235.115-2.508-.019-3.734-.365-3.568-2.285-7.184-4.147-10.674-1.92-3.6-3.917-7.318-4.301-11.106-.538-5.408 2.227-10.753 4.896-15.917a144.28 144.28 0 002.131-4.228c6.816-14.51 6.586-29.829-.672-44.3-1.939-3.843-4.896-8.826-10.694-13.322-2.17-1.658-4.781-3.332-7.315-4.952-6.644-4.22-13.498-8.59-13.728-13.763-.192-4.157 4.051-8.025 7.795-11.436L464.602 0h6.316zm-262.54 367.203c4.628 1.55 7.208 3.759 9.558 5.963l.637.601c1.67 1.579 3.398 3.206 5.798 4.59 5.233 3 13.543 4.802 21.793 6.474l1.766.356c1.344.267 2.668.535 3.974.81 4.128.849 8.774 1.91 11.405 3.678 1.555 1.038 2.265 2.217 2.669 3.325h-1.94c-.384-.99-1.036-2.028-2.361-2.916-2.381-1.588-6.739-2.586-10.637-3.388-1.306-.267-2.63-.534-3.955-.801-9.043-1.824-18.394-3.702-24.269-7.082-2.534-1.454-4.301-3.121-6.01-4.74-2.553-2.413-4.953-4.692-9.638-6.256-5.491-1.832-14.016-2.413-22.79-1.549-6.759.66-13.095 2.02-19.22 3.333a756.98 756.98 0 01-3.244.691C111.072 380.982 53.318 383.992 0 385.863v-.786c53.107-1.871 110.554-4.873 161.03-15.484 1.076-.228 2.151-.456 3.226-.692 6.24-1.328 12.691-2.711 19.68-3.395 9.485-.936 18.394-.315 24.442 1.697zm89.798-132.464c26.515 1.745 41.933 8.976 45.466 15.374 3.609 6.532-2.65 13.032-8.698 19.32l-.941.982c-19.449 20.326-25.267 37.579-17.779 52.733 10.963 22.173 49.574 34.899 82.982 37.681 3.149.267 6.432.464 9.62.652 7.584.464 15.417.944 22.483 2.327 16.224 3.199 26.4 11.287 24.729 19.674-.633 3.151-2.784 6.343-6.355 9.518h-2.112c3.379-2.916 5.856-6.139 6.547-9.581 1.613-8.073-8.102-15.846-23.654-18.904-6.778-1.336-14.477-1.8-21.926-2.255-3.207-.189-6.509-.393-9.716-.661-20.755-1.729-39.878-6.508-55.334-13.825-14.342-6.799-24.691-15.485-29.146-24.469-7.564-15.311-1.728-32.705 17.876-53.18l.94-.983c.372-.386.745-.773 1.116-1.161l.739-.776c5.269-5.57 9.862-11.279 6.766-16.919-3.398-6.139-18.278-13.087-43.91-14.777-14.17-.927-28.685.134-42.72 1.171-4.762.346-9.658.708-14.477.983-20.448 1.179-40.896 3.018-60.787 5.486-40.128 4.975-77.76 12.387-111.879 22.032-1.728.479-3.436.974-5.164 1.47l-2.227.638c-11.16 3.196-22.773 6.374-36.039 7.811-8.026.872-16.205 1.061-24.576 1.132v-.786c8.218-.071 16.262-.26 24.096-1.101 13.824-1.501 25.94-4.975 37.651-8.339 1.728-.495 3.437-.99 5.165-1.478 34.291-9.683 72.096-17.127 112.416-22.126 19.987-2.483 40.531-4.338 61.075-5.517 4.781-.275 9.677-.629 14.4-.983 14.189-1.045 28.877-2.122 43.373-1.163zm1105.944-66.166c6.41.315 12.17 1.439 17.74 2.523 3.18.629 6.49 1.274 9.85 1.745 2.68.386 5.47.661 8.29.826v.794c-3.03-.173-6.03-.464-8.91-.873-3.47-.495-6.81-1.147-10.06-1.776-5.68-1.109-11.04-2.154-17.15-2.46-15.26-.763-29.18 3.607-39.62 7.498-16.78 6.241-32.09 13.236-45.47 20.774-6.62 3.733-13.19 7.821-16.38 12.395-.78 1.14-1.42 2.358-1.99 3.836-.41 1.077-.73 2.154-1.06 3.238-.31 1.03-.61 2.06-1 3.089-4.72 12.71-21.02 25.278-44.72 34.482-2.38.927-4.8 1.808-7.18 2.61-1.42.471-2.86.943-4.32 1.414-7.93 2.571-16.12 5.235-20.02 9.259-3.9 4.017-2.13 8.002-.27 12.215 1.07 2.429 2.19 4.944 2.13 7.475-.06 2.507-1.25 4.999-2.69 7.765l-.25.472c-.94 1.792-1.92 3.647-2.55 5.471-1.08 3.12-1.19 6.437-.33 9.872 2.88 11.577 15.96 21.803 35.85 28.068 13.79 4.331 30.57 8.182 52.8 12.112 39.69 6.995 84.38 12.403 133.19 16.089v.802c-49.08-3.702-94.04-9.133-133.94-16.176-22.41-3.953-39.32-7.828-53.22-12.206-20.32-6.39-33.66-16.821-36.6-28.611-.86-3.49-.75-6.877.35-10.061.65-1.854 1.63-3.717 2.57-5.525l.25-.472c1.42-2.719 2.59-5.172 2.65-7.608.06-2.46-1.04-4.936-2.11-7.326l-.32-.732c-1.71-3.913-3.16-7.934.7-11.914 4.09-4.221 12.5-6.949 20.62-9.582 1.46-.471 2.88-.935 4.29-1.407 2.36-.794 4.74-1.658 7.1-2.57 23.38-9.086 39.46-21.489 44.12-34.034.38-1.022.69-2.043 1-3.065.33-1.093.65-2.177 1.07-3.262.58-1.517 1.21-2.767 2.04-3.93 3.26-4.692 9.95-8.85 16.67-12.639 13.45-7.593 28.85-14.62 45.71-20.9 10.75-4 25.17-8.496 41.17-7.695zM133.69 269.449c38.419-6.611 118.368-20.358 147.859-13.724 6.125 1.376 9.849 3.569 11.059 6.516 5.798 14.03-36.346 31.33-49.402 36.298-26.304 10.005-57.83 17.519-90.547 24.963-39.552 9.007-84.384 19.21-133.21 19.886-1.42.023-2.841.031-4.223.031-5.492 0-10.56-.157-15.226-.479v-.794c5.798.409 12.25.558 19.392.456 48.365-.668 92.986-10.824 132.346-19.784 32.601-7.42 64.012-14.903 90.163-24.853 12.883-4.905 54.451-21.945 48.806-35.59-1.113-2.696-4.512-4.701-10.08-5.958-28.665-6.453-108.057 7.2-146.189 13.755-8.102 1.391-14.476 2.491-18.24 3.034C77.606 278.747 34.234 284.972 0 296.118v-1.006c34.291-10.981 77.26-17.159 115.565-22.653 3.705-.527 10.061-1.627 18.125-3.01zm1286.11-86.185c5.05.196 9.66.927 14.11 1.627 2 .314 4.04.636 6.09.904v.825c-2.3-.291-4.57-.652-6.78-.99-4.34-.692-8.83-1.392-13.61-1.58-12.02-.464-22.87 2.413-31.91 5.29-14.17 4.503-27 9.84-38.15 15.845-4.76 2.578-10.64 6.021-13.71 9.802-.75.904-1.36 1.863-1.96 3.034-.5.966-.92 1.933-1.34 2.908-.29.699-.6 1.399-.92 2.098-4.77 10.069-16.59 20.413-32.43 28.391-1.63.825-3.29 1.603-4.88 2.319-1.15.51-2.32 1.021-3.51 1.532-5.23 2.232-10.62 4.551-13.67 7.672-3.15 3.199-2.77 6.303-2.37 9.581.24 1.878.48 3.82 0 5.777-.44 1.792-1.44 3.545-2.51 5.4l-.38.676c-.85 1.493-1.71 3.097-2.25 4.7-.81 2.405-.92 5.038-.31 7.829 2.06 9.565 11.41 17.598 26.36 22.613 13.33 4.472 29.19 7.333 42.95 9.542 30.8 4.944 64.8 8.811 101.38 11.523v.801c-36.83-2.727-71.08-6.618-102.09-11.593-13.9-2.232-29.93-5.125-43.45-9.668-15.36-5.148-24.96-13.37-27.07-23.148-.61-2.845-.5-5.541.33-8.009.56-1.635 1.42-3.254 2.28-4.771l.39-.676c1.05-1.831 2.05-3.561 2.47-5.298.45-1.902.22-3.812-.02-5.659-.38-3.222-.8-6.555 2.5-9.911 3.19-3.262 8.72-5.636 14.07-7.923 1.18-.511 2.35-1.014 3.48-1.517a125.85 125.85 0 004.8-2.287c15.65-7.884 27.34-18.102 32.03-28.045.34-.692.63-1.391.94-2.083.42-.982.84-1.965 1.34-2.939.61-1.195 1.25-2.185 2.02-3.113 3.14-3.899 9.14-7.412 14.01-10.037 11.23-6.06 24.19-11.436 38.5-15.987 9.33-2.971 20.56-5.95 33.27-5.455zM89.318 290.081c10.503-1.556 26.746-1.831 37.632 1.25 6.663 1.886 10.253 4.771 10.349 8.339.135 4.363-6.105 8.686-19.065 13.205-17.895 6.249-39.226 11.067-63.437 14.337-13.075 1.768-24.346 2.633-34.483 2.633-4.628 0-9.044-.181-13.268-.542-2.13-.173-4.838-.472-7.046-1.093v-1.014c2.016.802 5.107 1.14 7.43 1.344 13.19 1.108 28.052.448 46.772-2.075 23.961-3.238 45.081-8.009 62.784-14.187 12.499-4.363 18.508-8.481 18.393-12.6-.096-3.348-3.302-5.942-9.523-7.703-8.851-2.507-23.597-2.979-35.866-1.155l-5.03.747-1.456.215-2.918.433c-20.446 3.039-41.226 6.331-57.892 12.164C11.54 308.285 3.686 313.025 0 317.937v-2.327c4.262-4.299 11.597-8.386 21.446-11.829 9.063-3.167 19.277-5.596 29.972-7.632 10.713-2.044 21.888-3.694 32.89-5.321l5.01-.747zm698.093-72.508c7.719-.716 15.648-.558 23.328-.409 14.323.283 29.127.566 42.778 2.845 34.733 5.777 49.305 22.708 48.173 35.983-.442 5.094-2.592 9.314-6.586 12.899-4.57 4.118-12.134 7.977-23.827 12.135-39.936 14.235-93.754 20.751-141.082 25.742-57.062 6.013-116.717 11.169-176.294 11.169-28.723 0-57.447-1.195-85.824-4.079-6.893-.7-14.707-1.62-20.467-3.718-6.97-2.555-10.637-6.878-9.792-11.562.768-4.197 4.588-8.12 8.294-11.916l24.691-25.325c6.855-7.035 13.959-14.313 25.747-20.397 12.749-6.571 31.469-11.821 54.183-15.193 32.102-4.763 60.057-4.912 96.441-.519 39.399 4.756 80.41 3.561 115.469-3.348 1.709-.338 3.418-.692 5.146-1.045 6.221-1.289 12.672-2.618 19.622-3.262zm23.232.377c-7.545-.149-15.36-.299-22.809.393-6.72.621-13.056 1.926-19.181 3.191a396.59 396.59 0 01-5.184 1.053c-35.482 6.996-76.973 8.198-116.851 3.396-17.319-2.091-32.698-3.144-47.54-3.144-15.955 0-31.276 1.21-47.692 3.647-22.368 3.317-40.82 8.489-53.338 14.942-11.616 5.989-18.662 13.212-25.478 20.2l-24.672 25.325c-3.648 3.741-7.412 7.608-8.16 11.68-.807 4.449 2.611 8.528 9.158 10.917 5.414 1.981 12.672 2.838 19.642 3.545 86.841 8.811 176.851 1.8 261.177-7.089 47.117-4.968 100.685-11.445 140.314-25.569 11.462-4.087 18.873-7.86 23.328-11.869 3.878-3.49 5.99-7.616 6.413-12.599 1.113-13.016-13.095-29.593-46.964-35.237-13.363-2.224-27.993-2.507-42.163-2.782zm624.807-19.988c1.55.031 3.07.11 4.55.212v.802c-1.52-.11-3.07-.197-4.65-.228-9.29-.165-17.83 1.556-24.25 3.089-11.46 2.735-21.83 6.414-30.77 10.91-5.25 2.633-8.78 4.928-11.08 7.215a18.87 18.87 0 00-1.92 2.224c-.73.967-1.37 1.958-1.98 2.917l-.5.778c-5.03 7.781-12.17 15.688-20.1 22.251-.85.692-1.69 1.368-2.55 2.036-1 .755-2.06 1.501-3.13 2.264-2.42 1.713-4.94 3.482-6.94 5.502-2.4 2.397-3.41 4.629-4.49 6.987-.61 1.321-1.23 2.688-2.11 4.072-.46.723-1 1.446-1.54 2.185-.51.715-1.05 1.438-1.53 2.177-.81 1.226-1.37 2.358-1.71 3.451-.56 1.697-.65 3.6-.31 5.792 1.21 7.656 6.91 13.425 16.92 17.159 9.17 3.427 21.31 5.368 33.04 6.964 21.79 2.955 45.1 5.321 69.6 7.058v.786c-24.71-1.737-48.23-4.119-70.21-7.098-11.93-1.619-24.27-3.607-33.72-7.129-10.41-3.875-16.3-9.825-17.53-17.692-.36-2.248-.27-4.19.31-5.943.36-1.131.94-2.295 1.75-3.552.49-.747 1.01-1.478 1.55-2.193.54-.731 1.06-1.454 1.52-2.162.86-1.359 1.48-2.711 2.09-4.016 1.04-2.295 2.13-4.669 4.59-7.145 2.05-2.067 4.61-3.859 7.05-5.596 1.07-.755 2.13-1.502 3.11-2.248.86-.653 1.69-1.321 2.51-2.005 7.89-6.523 14.98-14.368 19.97-22.102l.5-.778c.61-.967 1.27-1.973 1.99-2.947.64-.849 1.29-1.596 2-2.296 2.38-2.365 5.99-4.716 11.35-7.412 9.1-4.574 19.64-8.308 31.29-11.098 6.65-1.588 15.52-3.388 25.33-3.191zM767.654 231.32c5.76-.456 11.751-.307 17.05-.173 11.923.306 21.773.66 31.2 2.256 26.515 4.511 36.384 16.521 34.387 26.425-.749 3.726-2.649 6.775-5.798 9.322-3.821 3.097-9.888 5.966-19.047 9.031-30.355 10.163-70.732 14.612-109.478 18.306-39.898 3.859-85.997 7.664-132.288 7.664-6.931 0-13.843-.087-20.755-.268-15.283-.408-28.839-1.242-41.453-2.562-5.03-.527-10.771-1.218-15.187-2.798-5.242-1.879-8.103-4.928-7.872-8.371.192-2.916 2.342-5.667 4.934-8.717 6.221-7.286 11.712-13.181 17.242-18.542 6.662-6.461 14.457-11.475 23.808-15.342 5.529-2.288 12.134-4.347 19.584-6.108 7.449-1.768 15.763-3.254 24.71-4.393 25.575-3.262 48.423-3.427 76.416-.55 28.877 2.971 58.81 2.13 84.288-2.358 1.229-.213 2.458-.441 3.667-.669 4.647-.848 9.447-1.737 14.592-2.153zm16.935.613c-5.184-.134-11.04-.283-16.57.165-4.915.393-9.619 1.258-14.169 2.099l-3.687.668c-25.862 4.558-56.237 5.407-85.517 2.397-13.017-1.336-24.902-2.004-36.48-2.004-12.979 0-25.574.841-38.899 2.546-17.606 2.248-32.64 5.809-43.507 10.305-4.589 1.894-8.794 4.071-12.691 6.579a69.515 69.515 0 00-10.714 8.512c-5.51 5.345-10.982 11.224-17.203 18.495-2.534 2.978-4.646 5.674-4.819 8.473-.211 3.214 2.419 6.044 7.2 7.765 4.109 1.462 9.6 2.123 14.419 2.626 12.499 1.304 25.939 2.137 41.088 2.538 52.896 1.392 106.771-2.947 152.486-7.38 38.535-3.663 78.663-8.088 108.692-18.141 8.966-2.995 14.86-5.785 18.566-8.78 3.034-2.452 4.858-5.407 5.587-9.031 1.939-9.62-7.584-21.277-33.197-25.639-9.158-1.549-18.854-1.894-30.585-2.193zm-559.642 37.979c10.906-.251 19.027 1.054 22.291 3.561 3.168 2.421 1.46 5.643-4.819 9.07-12 6.564-32.006 10.619-51.821 10.619-1.286 0-2.592-.015-3.878-.055-2.246-.063-4.608-.173-6.758-.605-5.78-1.163-7.469-4.087-7.181-6.233.576-4.181 7.142-8.402 17.529-11.287 5.28-1.462 11.156-2.664 17.108-3.537 5.932-.872 11.961-1.407 17.529-1.533zm2.573.755c-.806 0-1.632.016-2.477.031-10.79.244-23.366 2.083-33.638 4.936-4.954 1.368-8.986 3.058-11.866 4.889-2.861 1.84-4.55 3.82-4.838 5.793-.269 1.902 1.171 4.488 6.105 5.479 1.844.369 3.994.471 6.048.526 20.41.558 41.626-3.466 54.029-10.249 5.799-3.168 7.469-6.092 4.666-8.23-2.669-2.043-9.159-3.175-18.029-3.175zm520.416-25.592c3.514-.189 7.104-.079 10.752.055 6.816.259 13.459.581 19.603 1.666 15.936 2.798 24.019 9.432 20.602 16.891-1.075 2.35-2.669 4.174-5.031 5.738-3.129 2.083-7.66 3.962-14.284 5.919-22.042 6.539-51.264 8.803-77.031 10.791l-.825.063c-28.416 2.209-58.618 4.198-88.589 4.198-3.744 0-7.469-.032-11.194-.095-10.867-.196-19.469-.676-27.072-1.517-3.264-.361-6.989-.864-9.926-1.878-3.418-1.179-5.53-3.011-5.952-5.156-.384-1.95.614-3.868 1.574-5.51a49.232 49.232 0 019.811-11.79c4.628-4.048 12.212-7.609 21.927-10.305 4.704-1.305 9.965-2.436 15.705-3.403 5.741-.967 11.981-1.769 18.682-2.39 18.778-1.737 36.672-1.917 56.333-.581 18.182 1.242 37.075.754 53.203-1.376.71-.094 1.421-.188 2.131-.291 3.072-.416 6.24-.856 9.581-1.029zm10.579.841c-3.552-.134-7.008-.244-10.329-.063-3.168.165-6.106.574-9.216.998-.73.102-1.44.197-2.17.291-16.397 2.169-35.616 2.665-54.106 1.407-8.486-.582-16.646-.873-24.691-.873-10.329 0-20.486.48-30.893 1.447-13.152 1.218-24.499 3.12-33.734 5.675-4.723 1.304-8.928 2.821-12.499 4.496-3.571 1.682-6.528 3.529-8.755 5.486a47.824 47.824 0 00-9.677 11.64c-.941 1.588-1.901 3.427-1.536 5.267.211 1.116 1.19 3.207 5.261 4.621 2.668.912 6.144 1.384 9.196 1.722 7.45.825 15.936 1.297 26.65 1.485 33.427.582 67.507-1.619 99.36-4.087l.826-.063c25.555-1.981 54.547-4.221 76.243-10.658 6.413-1.894 10.79-3.702 13.785-5.691 2.228-1.485 3.744-3.222 4.762-5.47 3.245-7.09-4.397-13.378-19.469-16.027-5.894-1.037-12.345-1.352-19.008-1.603zM1440 213.069v.794c-1.9.118-3.78.275-5.63.479-13.76 1.533-26.03 5.927-33.65 12.05-6.07 4.873-9.39 10.713-10.43 18.376l-.11.778c-.31 2.484-.64 5.054-3.06 7.389-1.69 1.635-4.32 3.081-6.87 4.472-2.96 1.611-5.74 3.128-7.22 4.936-1.59 1.942-1.52 4.072-1.44 5.958.17 4.268.88 8.693 7.49 11.719 5.66 2.594 14.49 3.577 23.06 4.363 12.48 1.147 25.13 2.098 37.86 2.861v.794c-12.86-.771-25.65-1.737-38.28-2.893-8.88-.809-18.03-1.831-24.08-4.606-7.03-3.222-7.8-7.805-7.97-12.23-.08-1.847-.15-4.15 1.54-6.217 1.59-1.926 4.59-3.569 7.5-5.156 2.48-1.36 5.05-2.759 6.65-4.308 2.28-2.208 2.59-4.708 2.9-7.121l.11-.778c1.06-7.781 4.44-13.724 10.64-18.699 7.87-6.319 20.58-10.855 34.87-12.442 2.01-.228 4.07-.393 6.12-.519zm-738.643 45.957c11.865-.44 28.128-1.037 39.341 1.164 5.28 1.037 8.275 2.358 8.908 3.914.711 1.713-1.478 3.608-6.489 5.635-12.979 5.267-34.829 5.738-52.378 6.116l-3.341.07c-15.379.346-30.988.613-46.406.794-1.037.008-2.074.016-3.091.016-5.28 0-10.253-.228-14.266-1.431-7.065-2.122-7.488-6.531-3.437-9.329 5.127-3.537 14.88-4.803 20.237-5.243 11.904-.983 24.903-1.116 37.479-1.25 7.603-.078 15.456-.165 22.828-.432l.615-.024zm17.529.37c-6.086 0-12.153.22-17.356.416l-.615.016c-7.43.275-15.321.362-22.944.44-12.499.134-25.421.267-37.171 1.234-4.282.354-8.16.975-11.386 1.808-3.225.833-5.836 1.871-7.564 3.065-3.61 2.5-3.303 6.43 2.918 8.293 4.301 1.289 10.099 1.328 16.166 1.265 15.399-.181 30.989-.448 46.349-.794l3.36-.07c17.223-.37 38.669-.826 51.13-5.888 4.531-1.839 6.547-3.505 5.952-4.951-.538-1.289-3.187-2.406-7.872-3.325-5.933-1.171-13.459-1.509-20.967-1.509zm228.25-90.241c22.272 0 43.123 6.257 61.514 13.048 19.43 7.167 46.06 10.017 72.75 12.34l2.77.239c2.3.197 4.6.392 6.89.586 8.6.731 16.72 1.415 24.63 2.232 14.15 1.455 31.76 3.262 43.03 8.34 6.14 2.767 10.2 6.414 11.71 10.54 3.73 10.124-9.1 21.206-32.66 28.233-18.51 5.51-42.99 8.764-74.88 9.951-4.8.181-10.17.322-15.8.322-15.92 0-33.98-1.147-47.596-5.879-14.257-4.962-19.886-12.449-24.627-19.943l-.544-.864-.806-1.295c-1.21-1.942-2.458-3.946-3.821-5.856-5.664-7.97-17.261-18.903-40.358-25.71-1.69-.495-3.476-.99-5.261-1.493l-1.185-.33c-.987-.276-1.974-.552-2.951-.833l-1.168-.338c-8.132-2.378-15.327-5.039-16.181-9-.749-3.53 4.493-7.287 14.035-10.061 10.387-2.987 20.583-4.229 30.509-4.229zm60.234 13.629c-26.02-9.597-57.028-18.133-89.648-8.756-8.967 2.61-13.901 6.107-13.21 9.346.941 4.441 10.963 7.223 20.64 9.919 1.805.503 3.59 1.006 5.299 1.509 23.559 6.941 35.347 18.039 41.088 26.127 1.363 1.926 2.631 3.938 3.821 5.879l.265.426.8 1.278c4.742 7.533 10.214 15.094 24.315 19.998 13.6 4.731 33.28 6.437 61.98 5.368 31.53-1.171 55.72-4.378 73.92-9.801 22.98-6.854 35.5-17.638 31.89-27.479-1.46-3.977-5.36-7.475-11.23-10.132-10.89-4.896-28.19-6.673-42.07-8.103-7.89-.81-15.99-1.501-24.57-2.225l-2.78-.235c-29.18-2.478-59.04-5.196-80.51-13.119zm7.22 22.134c3.49-.44 7.06-.33 11.02-.157 10.65.456 21.31 1.25 31.62 2.012 9.02.668 18.33 1.36 27.59 1.824 2.74.133 5.7.204 8.85.283 8.89.204 18.95.448 26.17 2.405 10.25 2.79 14.63 6.178 12.96 10.068-3.23 7.522-28.92 14.691-45.18 16.318-7.29.731-15.53 1.407-24.02 1.407-3.13 0-6.28-.087-9.44-.307-12.98-.904-25.75-4.009-35.95-8.74-9.69-4.512-15.53-9.81-16.43-14.919-.73-4.047 2.98-8.96 12.81-10.194zm5.58.48c-1.74 0-3.41.07-5.03.275-8.81 1.108-12.11 5.635-11.46 9.377.88 4.944 6.57 10.084 15.97 14.462 9.91 4.598 22.28 7.608 34.83 8.481 11.33.786 22.89-.11 32.68-1.085 15.78-1.58 40.67-8.473 43.74-15.688 1.54-3.561-2.55-6.673-12.12-9.275-6.79-1.847-16.58-2.083-25.22-2.287-3.17-.071-6.17-.142-8.97-.283-9.31-.464-18.66-1.164-27.71-1.832-10.27-.762-20.89-1.548-31.47-2.004-1.84-.079-3.57-.141-5.24-.141zm-604.413-22.999c21.715-3.309 61.152 1.879 76.992 8.277 15.225 6.154 17.856 24.154 4.454 30.575-3.84 1.847-9.984 2.845-16.531 2.845-3.13 0-6.355-.227-9.466-.707-9.523-1.446-16.608-4.724-21.12-7.058-1.728-.896-3.417-1.832-5.049-2.728-3.648-2.02-7.411-4.103-11.827-5.863-3.437-1.368-7.354-2.578-11.136-3.742-4.071-1.257-8.276-2.554-11.962-4.071-6.682-2.751-12.71-7.2-9.542-11.421 2.035-2.688 7.699-4.975 15.187-6.107zm75.648 8.835c-15.475-6.249-53.875-11.311-74.976-8.104-6.931 1.053-12.173 3.152-14.016 5.612-2.938 3.883 2.765 8.041 9.062 10.635 3.591 1.47 7.738 2.751 11.751 3.993 3.84 1.187 7.795 2.405 11.328 3.812 4.531 1.8 8.332 3.914 12.019 5.95 1.632.896 3.302 1.823 5.011 2.711 4.378 2.264 11.232 5.432 20.294 6.815 8.871 1.352 18.701.566 23.866-1.918 12.922-6.193 10.349-23.564-4.339-29.506zM434.746 0c-3.898 4.928-9.159 9.739-14.324 14.462-11.654 10.643-22.656 20.696-19.238 31.7 1.67 5.384 6.912 10.532 11.962 15.508 2.016 1.988 4.108 4.04 5.952 6.083 12.192 13.535 14.88 28.768 7.564 42.884-1.632 3.144-3.782 6.304-5.856 9.354-3.571 5.266-7.257 10.713-8.39 16.231-.614 3.081-.461 6.288-.307 9.385.307 6.382.614 12.976-5.818 18.871-9.561 8.741-32.429 14.824-67.929 18.071-19.584 1.792-39.821 2.774-59.405 3.725-12.691.621-25.824 1.258-38.631 2.107-32.102 2.138-64.166 5.737-95.174 9.219-45.984 5.164-93.542 10.509-141.946 11.13-.73.008-1.497.016-2.304.016-.307 0-.595 0-.902-.008v-.786c1.094.008 2.15.008 3.149-.008 48.173-.613 95.616-5.95 141.504-11.098 31.065-3.49 63.168-7.098 95.366-9.244 12.845-.848 25.997-1.493 38.707-2.106 19.527-.951 39.725-1.934 59.213-3.71 34.887-3.191 57.293-9.125 66.586-17.63 6.278-5.73 5.952-12.238 5.664-18.534-.154-3.12-.307-6.343.326-9.471 1.133-5.581 4.858-11.067 8.448-16.372 2.074-3.042 4.205-6.178 5.818-9.307 7.238-13.967 4.589-29.042-7.488-42.452-1.824-2.027-3.898-4.071-5.914-6.044-5.107-5.03-10.406-10.226-12.096-15.712-3.328-10.69 7.067-20.837 17.784-30.654l1.072-.98.536-.49C423.725 9.518 428.87 4.81 432.73 0h2.016zm-38.42 0c-3.168 5.384-7.296 10.682-13.44 15.673-2.937 2.374-6.336 4.676-9.638 6.909-3.59 2.444-7.315 4.96-10.406 7.561-15.36 12.97-15.053 29.02.825 41.886 2.131 1.721 4.57 3.435 6.931 5.093 5.376 3.773 10.925 7.672 13.268 12.018 2.745 5.125.806 10.43-1.095 15.563-.518 1.423-1.056 2.893-1.478 4.323-1.383 4.63-1.709 9.393-1.997 13.991-.326 4.905-.672 9.982-2.304 14.934-2.65 8.088-10.33 19.045-31.834 25.325-16.07 4.684-36.307 5.745-55.891 6.759l-1.632.087c-64.781 3.388-129.35 9.007-191.923 16.71l-4.723.582-3.575.442c-24.454 3.02-49.4 5.964-73.859 5.964-4.531 0-9.062-.102-13.555-.323v-.793c25.029 1.248 50.907-1.279 76.419-4.326l3.122-.375c3.64-.441 7.272-.889 10.891-1.336l4.742-.589c62.65-7.711 127.316-13.347 192.212-16.734l1.632-.087c1.579-.082 3.164-.164 4.75-.249l2.379-.129c17.059-.937 34.149-2.233 47.898-6.248 20.947-6.115 28.435-16.852 31.046-24.782 1.613-4.913 1.959-9.967 2.285-14.856.288-4.614.614-9.392 1.997-14.061.441-1.447.979-2.916 1.497-4.347 1.863-5.062 3.802-10.289 1.114-15.28-2.266-4.22-7.757-8.064-13.056-11.79-2.362-1.666-4.819-3.387-6.97-5.132-16.147-13.08-16.473-29.397-.844-42.586 3.129-2.625 6.873-5.164 10.502-7.624 3.264-2.216 6.662-4.512 9.542-6.854 6.01-4.865 10.061-10.045 13.191-15.319h1.977zM523.2 0c-22.138 10.037-40.128 20.955-39.206 33.617.422 5.628 4.78 11.138 8.985 16.46 1.306 1.642 2.65 3.34 3.859 5.014 9.927 13.763 12.327 28.532 6.932 42.703-1.383 3.679-3.322 7.381-5.204 10.957-2.764 5.29-5.625 10.752-6.777 16.215-1.575 7.499-.135 18.07 15.571 25.891 4.397 2.185 9.869 4.119 15.149 5.981 8.793 3.105 17.894 6.312 22.253 10.792 1.612 1.643 2.553 3.443 3.456 5.172 1.67 3.176 3.244 6.17 8.544 8.292 4.032 1.62 9.58 2.413 15.859 3.215 39.725 5.031 81.446 8.788 117.638 2.209 9.811-1.792 19.027-4.339 27.936-6.799l1.067-.296 2.139-.591c12.51-3.447 25.533-6.812 40.493-7.956 13.69-1.045 27.687-.11 41.204.794 8.14.543 16.55 1.109 24.825 1.234 40.608.598 80.583-10.218 95.098-25.749 8.601-9.22 8.621-19.461 8.64-28.493.057-21.245.134-47.694 37.171-66 6.931-3.427 15.072-6.492 22.944-9.456 7.43-2.798 15.134-5.69 21.754-8.881 19.74-9.503 30.03-21.946 29.51-34.325h1.92c.52 12.56-9.95 25.191-29.97 34.828-6.7 3.23-14.44 6.146-21.928 8.96-7.814 2.94-15.897 5.99-22.752 9.377-36.595 18.086-36.672 44.378-36.729 65.497-.019 9.102-.039 19.415-8.775 28.768-14.784 15.846-55.526 26.905-96.96 26.26-8.39-.125-16.857-.691-25.056-1.242-13.363-.896-27.168-1.815-40.531-.793-15.859 1.202-29.664 5.022-42.989 8.708-8.985 2.484-18.278 5.054-28.243 6.87-14.112 2.57-29.011 3.592-44.294 3.592-24.519 0-49.997-2.641-74.669-5.769-5.318-.676-11.942-1.517-16.646-3.396-5.133-2.058-7.03-4.9-8.562-7.745l-.335-.632-.166-.316c-.902-1.698-1.824-3.466-3.379-5.046-4.186-4.299-12.71-7.302-21.715-10.485-5.338-1.887-10.867-3.844-15.379-6.084-16.128-8.017-17.607-18.809-16.013-26.449 1.152-5.51 4.032-11.004 6.816-16.317 1.881-3.561 3.801-7.255 5.203-10.91 5.338-14.061 2.957-28.712-6.893-42.365-1.209-1.666-2.534-3.356-3.84-4.991-4.243-5.377-8.659-10.941-9.081-16.68-.941-12.709 16.665-23.626 38.534-33.64h2.592zm870.28 49.605c17.07 1.5 33.46 2.617 46.52.471v2.492c-15.78 2.146-34.43.51-47.73-.66-128.81-11.319-235.34-10.077-325.69 3.811-46.93 7.208-75.687 17.261-85.518 29.884-4.416 5.675-4.819 11.798-5.203 17.717-.065 1.012-.13 2.027-.191 3.043l-.088 1.527c-.636 11.716-.376 23.667 7.998 34.965 5.433 7.357 14.63 14.848 28.112 22.897 7.54 4.503 16.99 9.479 29.78 12.222 11.17 2.405 24.09 3.003 37.45 3.451 17 .565 34.22.927 51.25 1.076 9.45.079 17.87.04 25.44-1.289 9.45-1.674 16.42-5.258 22.56-8.418l75.07-38.624c13.13-6.759 28.03-14.423 47.62-19.288 17.35-4.323 43.81-7.114 65.99-2.005 4.34 1.007 8.25 2.256 12.04 3.467 3.51 1.132 6.83 2.201 10.48 3.081 14.98 3.623 32.68 3.537 50.63 1.776v2.374c-27.48 2.609-42.47.558-53.55-2.122-3.99-.959-7.62-2.122-11.12-3.246-3.78-1.211-7.35-2.358-11.3-3.27-16.5-3.804-40.11-3.034-60.2 1.957-18.68 4.645-32.62 11.814-46.1 18.746l-75.05 38.624c-6.26 3.215-14.01 7.208-24.79 9.11-7.14 1.257-14.88 1.509-22.86 1.509-1.65 0-3.32-.008-4.99-.024-17.13-.149-34.49-.518-51.58-1.084-13.97-.472-27.53-1.101-39.66-3.71-13.92-2.987-23.91-8.238-31.86-12.977-13.82-8.253-23.266-15.956-28.892-23.549-9.715-13.142-8.813-26.936-7.949-40.282.403-6.084.807-12.372 5.472-18.369 10.387-13.346 40.339-23.902 88.989-31.377 91.41-14.054 199.01-15.327 328.92-3.907zM350.323 0c-3.302 8.072-12.038 15.775-20.582 23.297-1.709 1.517-3.418 3.018-5.069 4.512-13.478 12.246-19.642 23.132-18.854 33.287.499 6.201 5.856 12.089 11.04 17.787 4.281 4.716 8.716 9.597 10.464 14.682 4.416 12.907 3.417 25.207-2.861 35.575-8.813 14.533-34.714 23.155-79.162 26.362-53.126 3.828-102.873 9.967-140.294 14.879-27.61 3.632-51.552 5.439-72.845 5.439-11.443 0-22.1-.518-32.16-1.556v-.817c28.531 2.994 62.112 1.752 104.429-3.812 37.459-4.929 87.283-11.075 140.525-14.911 43.622-3.144 69.024-11.578 77.644-25.773 6.221-10.265 7.2-22.472 2.823-35.283-1.709-4.992-6.106-9.833-10.368-14.51l-1.015-1.117c-4.905-5.414-9.673-11.002-10.14-16.922-.807-10.273 5.414-21.277 19.027-33.633 1.651-1.5 3.36-3.002 5.069-4.52.526-.463 1.054-.928 1.581-1.394l1.578-1.4C338.495 13.633 345.458 6.94 348.365 0h1.958zm223.431 0c-20.41 9.18-31.623 18.534-33.389 27.84-1.037 5.534 1.305 11.146 3.571 16.577a275.94 275.94 0 011.363 3.317c8.698 22.102 6.375 45.265-6.739 66.998 4.109 6.265 8.39 12.734 17.03 18.299 2.343 1.516 5.05 2.986 7.68 4.401 4.877 2.641 9.908 5.368 12.884 8.52 2.092 2.217 3.129 4.614 4.128 6.933 1.478 3.458 2.899 6.72 7.468 9.471 5.78 3.474 16.148 5.793 31.68 7.082 26.861 2.24 53.895 1.014 76.167-3.443 24.192-4.841 42.489-13.637 48.902-23.525 5.28-8.135 2.803-16.757.403-25.097-.96-3.317-1.939-6.751-2.419-10.115-2.515-17.237 8.237-34.844 30.259-49.573 5.184-3.482 11.136-6.91 16.896-10.234l1.58-.911 1.58-.914 1.578-.917 1.571-.92c12.797-7.523 24.653-15.39 27.541-24.383 2.016-6.28-.538-12.953-7.219-19.406h2.054c6.605 6.492 9.082 13.19 7.066 19.509-3.418 10.658-19.066 19.673-34.176 28.398-5.741 3.309-11.674 6.736-16.839 10.186-21.811 14.596-32.467 32.038-29.99 49.117.499 3.341 1.478 6.768 2.419 10.077 2.419 8.41 4.915 17.103-.461 25.38-6.547 10.108-25.209 19.092-49.9 24.036-15.264 3.049-32.717 4.614-50.823 4.614-8.755 0-17.664-.362-26.553-1.109-16.071-1.336-26.823-3.757-32.89-7.412-4.819-2.892-6.336-6.39-7.795-9.77-.979-2.287-1.997-4.645-4.032-6.791-2.861-3.049-7.815-5.73-12.615-8.323-2.649-1.439-5.376-2.917-7.776-4.457-8.832-5.699-13.152-12.262-17.318-18.62l-.077-.095.058-.102c13.113-21.654 15.456-44.747 6.777-66.779-.422-1.1-.883-2.2-1.344-3.309-2.304-5.478-4.665-11.145-3.609-16.773C540.211 18.48 551.194 9.15 571.162 0h2.592zm512.136 64.381c48.5-6.516 138.78-18.644 171.77 8.772 8.23 6.854 9.89 15.406 4.64 24.09-4.14 6.886-12.36 13.874-25.82 21.993-13.08 7.892-29.18 15.83-50.69 24.987-16.78 7.145-31.6 12.71-49.4 16.616-14.28 3.136-28.99 4.74-42.89 4.74-6.76 0-13.31-.378-19.53-1.14-18.81-2.303-36.04-8.512-47.27-17.04-10.29-7.821-15.01-16.656-18.57-25.035-5.56-13.11-8.732-28.083 9.87-39.763 16.53-10.383 46.68-15.374 67.89-18.22zm170.04 9.118c-32.26-26.795-121.5-14.816-169.44-8.371-20.95 2.814-50.67 7.726-66.87 17.905-18.26 11.452-15.1 26.237-9.58 39.198 3.53 8.316 8.19 17.072 18.35 24.79 11 8.348 27.8 14.423 46.14 16.664 18.3 2.24 40.51.951 60.94-3.537 17.59-3.86 32.29-9.377 48.94-16.475 21.43-9.118 37.46-17.025 50.5-24.877 13.32-8.041 21.44-14.95 25.53-21.74 5.15-8.505 3.53-16.868-4.51-23.557zM53.338 70.064c39.475-7.538 85.9-9.196 130.752-4.66 38.611 3.906 76.684 9.376 93.676 22.84 15.629 12.388 18.759 25.514 8.391 35.127-8.602 7.97-27.533 14.446-57.888 19.799-28.455 5.022-60.096 8.662-96.768 11.122-29.511 1.981-61.363 3.152-100.205 3.694-2.995.039-6.048.071-9.158.071-7.296 0-14.823-.15-22.138-.59v-.794c10.387.637 21.254.668 31.22.527 38.783-.542 70.54-1.713 99.974-3.686 36.499-2.445 68.006-6.068 96.326-11.059 29.875-5.282 48.499-11.625 56.89-19.399 10.137-9.4 7.008-22.275-8.352-34.45-16.147-12.794-52.022-18.25-88.996-22.089l-2.288-.235-1.145-.117c-44.41-4.488-90.413-2.853-129.485 4.614C33.926 74.646 15.533 80.133 0 86.9v-1.14c15.418-6.563 33.485-11.9 53.338-15.696zm776.102-8.221c13.978-2.091 28.378-1.415 41.664 1.949 36.614 9.282 33.946 30.693 31.987 46.327-.173 1.438-.365 2.837-.499 4.189-.806 7.734-2.438 16.64-11.827 24.429-10.061 8.355-28.762 13.944-47.635 14.242-.557.016-1.095.016-1.652.016-18.432 0-37.094-4.889-47.923-12.615-10.925-7.774-13.017-16.907-13.613-23.989a74.045 74.045 0 01-.268-6.084c0-12.033 3.283-22.031 9.984-30.426 6.739-8.465 21.984-15.374 39.782-18.038zm40.666 2.617c-12.768-3.238-26.612-3.89-40.013-1.879-17.261 2.586-32.045 9.307-38.611 17.544-7.719 9.683-10.868 21.536-9.62 36.234.596 6.996 2.65 16.003 13.344 23.635 10.81 7.703 29.568 12.498 47.847 12.207 18.182-.291 36.23-5.714 45.984-13.81 9.216-7.648 10.848-16.459 11.635-24.122.134-1.344.326-2.751.499-4.198 1.939-15.437 4.589-36.572-31.065-45.611zm224.414 11.727c39.49-5.927 95.61-11.963 126.81 4 7.01 3.577 10.52 7.53 10.52 11.79 0 2.068-.82 4.214-2.47 6.422-4.84 6.485-14.62 12.584-23.54 17.693-10.7 6.107-22.87 12.089-37.23 18.283-10.54 4.551-22.2 9.188-35.98 12.308-10.83 2.46-22.43 3.742-33.28 3.742-4.45 0-8.79-.213-12.88-.653-14.34-1.532-27.46-5.926-35.96-12.057-8.05-5.84-11.44-12.584-13.71-18.424a36.31 36.31 0 01-.73-1.973c-2.59-7.585-4.47-18.667 9.18-27.258 9.31-5.856 24.96-10.265 49.27-13.873zm69.58-5.44c-23.5 0-48.46 3.106-68.91 6.179-23.91 3.545-39.27 7.852-48.33 13.558-13.3 8.38-11.44 19.265-8.89 26.724.23.661.46 1.313.71 1.965 2.25 5.762 5.61 12.427 13.5 18.149 8.26 5.958 20.93 10.218 34.77 11.688 13.59 1.454 29.91.361 44.74-3.011 13.55-3.073 25.09-7.663 35.54-12.167 14.3-6.162 26.41-12.12 37.05-18.204 8.83-5.054 18.51-11.082 23.27-17.457 4.86-6.508 2.27-12.395-7.72-17.496-7.22-3.694-15.84-6.178-25.32-7.734-9.47-1.556-19.8-2.193-30.41-2.193zM77.069 77.273c29.395-4.59 63.149-5.408 95.04-2.296 1.977.197 3.955.394 5.952.598 26.419 2.712 55.238 6.901 68.621 17.37 12.46 9.692 14.668 20.067 5.913 27.746-7.257 6.32-22.905 11.484-47.808 15.775-22.406 3.867-47.981 6.768-76.032 8.623-14.515.967-29.702 1.674-46.387 2.169-10.234.299-20.794.511-32.275.652-2.016.024-4.07.04-6.163.04-15.36 0-32.295-.778-43.93-4.559v-1.03c12.672 4.536 33.043 4.96 50.035 4.763 11.463-.141 21.984-.353 32.18-.652 16.646-.495 31.775-1.195 46.233-2.154 27.898-1.854 53.338-4.731 75.59-8.575 24.461-4.213 39.764-9.251 46.81-15.382 8.506-7.459 6.317-17.575-5.875-27.054-6.509-5.101-16.858-8.67-28.819-11.303-11.981-2.633-25.556-4.33-38.554-5.667-1.997-.204-3.974-.4-5.933-.597-12.595-1.226-25.478-1.831-38.265-1.831-19.22 0-38.208 1.375-55.661 4.102-2.919.456-5.818.952-8.64 1.486-22.522 4.22-42.202 10.878-56.89 19.241a98.134 98.134 0 00-5.856 3.584 73.34 73.34 0 00-6.355 4.7V105.3a73.608 73.608 0 014.723-3.387 91.024 91.024 0 015.933-3.64c14.88-8.472 34.81-15.216 57.658-19.492a270.892 270.892 0 018.755-1.51zM598.06 0c-15.475 7.774-24.058 15.508-25.575 23.03-.902 4.48.711 9.039 2.247 13.44.326.936.653 1.863.96 2.79 5.837 17.843 3.398 36.746-7.047 54.66 1.594 2.797 3.418 5.957 5.914 8.944a33.923 33.923 0 006.528 6.052c1.843 1.321 4.013 2.61 6.106 3.851 3.59 2.146 7.315 4.355 9.638 6.854 1.594 1.706 2.534 3.514 3.437 5.267 1.478 2.884 2.88 5.604 6.969 7.86 4.82 2.68 13.383 4.48 25.421 5.36 21.447 1.572 42.739.33 59.943-3.498 18.566-4.134 32.736-11.562 37.881-19.87 4.09-6.508 2.477-13.377.903-20.027-.634-2.696-1.287-5.478-1.556-8.214-1.382-13.684 7.181-27.855 24.116-39.89 3.84-2.727 8.16-5.43 12.364-8.048l.697-.435 1.393-.872c10.913-6.844 21.65-13.956 23.888-22.069 1.363-4.912-.557-10.123-5.472-15.185h2.054c4.839 5.093 6.701 10.328 5.338 15.28-2.097 7.577-11.365 14.242-21.381 20.62l-1.402.887c-.468.296-.938.59-1.407.885l-1.41.882-.704.44c-4.166 2.601-8.486 5.297-12.288 8.009-16.762 11.908-25.229 25.93-23.866 39.465.269 2.712.922 5.486 1.536 8.166 1.594 6.721 3.226 13.661-.94 20.303-5.28 8.512-19.796 16.129-38.823 20.365-12.633 2.806-27.398 4.252-42.816 4.252-6.067 0-12.211-.22-18.393-.676-12.538-.911-21.485-2.814-26.631-5.659-4.32-2.397-5.837-5.329-7.296-8.166-.883-1.722-1.805-3.506-3.341-5.157-2.246-2.405-5.894-4.582-9.446-6.681-2.112-1.257-4.301-2.562-6.182-3.906a35.146 35.146 0 01-6.682-6.186c-2.534-3.057-4.378-6.272-6.01-9.11l-.057-.094.057-.086c10.426-17.858 12.864-36.69 7.066-54.47-.307-.928-.634-1.847-.96-2.775-1.555-4.449-3.168-9.047-2.266-13.621 1.517-7.522 9.927-15.233 25.037-22.967h2.458zM89.779 86.405c21.927-3.34 46.906-4 70.349-1.855 1.44.134 2.918.275 4.378.417 18.374 1.784 40.78 4.834 51.091 12.67 9.293 7.074 10.579 14.69 3.417 20.389-5.856 4.661-18.201 8.496-37.708 11.735-16.685 2.766-35.29 4.834-55.296 6.131-10.484.683-21.831 1.194-33.696 1.524a1253.9 1253.9 0 01-23.405.417c-1.018.008-2.035.008-3.072.008-13.767 0-29.664-.747-38.208-5.243-4.109-2.161-6.413-4.92-6.874-8.198a12.111 12.111 0 01-.096-1.878c.25-6.21 5.338-12.576 14.688-18.393a80.139 80.139 0 014.55-2.625c11.33-6.076 26.325-10.918 43.393-14.014 2.112-.385 4.3-.755 6.49-1.085zm42.797-2.303c-14.477 0-28.877 1.022-42.125 3.042-2.15.322-4.3.684-6.393 1.06-16.762 3.043-31.508 7.806-42.644 13.772a81.142 81.142 0 00-4.454 2.586c-9.158 5.698-14.131 11.907-14.38 17.968-.02.628.018 1.234.095 1.823.423 3.12 2.611 5.73 6.47 7.758 8.66 4.559 25.767 5.03 39.725 4.936 8.064-.071 15.917-.212 23.328-.417 11.789-.322 23.079-.833 33.524-1.517 19.852-1.289 38.304-3.332 54.854-6.075 19.066-3.168 31.085-6.886 36.73-11.374 6.873-5.463 5.606-12.812-3.399-19.65-4.973-3.78-12.941-6.414-21.907-8.323-8.986-1.91-18.95-3.09-27.936-3.962a460.864 460.864 0 00-4.358-.409 298.069 298.069 0 00-27.13-1.218zm970.544 3.899c25.07-4.567 69.58-7.57 84.5-1.093 10.1 4.064 14.22 7.137 8.83 12.662-4.61 4.716-13.71 9.44-21.01 13.237l-.27.141c-7.21 3.749-15.09 7.75-23.75 11.586-6.56 2.9-13.84 5.887-22.56 7.993-7.48 1.832-15.78 2.806-23.55 2.806-2.15 0-4.27-.078-6.32-.227-9.95-.747-18.93-3.317-24.65-7.074-5.78-3.789-7.8-8.301-8.89-11.814-.14-.417-.25-.841-.37-1.273-1.88-7.381.56-13.087 7.43-17.434 7.84-4.967 21.22-7.805 30.61-9.51zm54.37-4.009c-17.68 0-38.82 2.036-53.59 4.724-14.57 2.649-24.02 5.58-29.78 9.22-6.62 4.197-8.96 9.73-7.12 16.93.1.417.23.841.35 1.258 1.07 3.427 3.03 7.836 8.62 11.491 5.43 3.568 13.96 6.013 23.36 6.72 8.97.668 19.38-.236 28.55-2.483 8.51-2.06 15.67-4.992 22.14-7.853 8.6-3.812 16.46-7.797 23.64-11.538l.27-.142c7.23-3.757 16.22-8.433 20.73-13.04 4.53-4.637 2.58-7.396-8.41-11.813l-.02-.008c-5.66-2.468-16.35-3.466-28.74-3.466zm-332.466 5.07c6.931-4.095 16.992-6.029 29.914-5.722 8.889.204 15.34 1.886 19.18 4.99 13.114 10.612-8.198 34.349-17.644 40.283-2.228 1.399-4.8 2.79-8.564 3.466-1.574.283-3.302.417-5.088.417-3.609 0-7.43-.566-10.617-1.643-4.397-1.477-7.047-3.584-9.043-5.439-2.4-2.224-4.397-5.03-5.856-8.096-1.46-3.065-2.362-6.382-2.573-9.62-.327-5.526 1.171-13.244 10.291-18.636zm27.36-4.968c-11.021 0-19.699 1.816-25.786 5.416-14.937 8.819-10.963 26.967-1.689 35.582 1.92 1.776 4.416 3.781 8.505 5.156 4.205 1.415 9.6 1.855 13.709 1.108 3.322-.589 5.683-1.87 7.738-3.167 10.771-6.768 29.472-29.86 17.549-39.505-3.514-2.837-9.428-4.37-17.588-4.558a84.858 84.858 0 00-2.438-.032zM102.509 95.53c14.457-2.082 30.662-2.578 45.619-1.406.922.07 1.862.149 2.803.227 17.395 1.478 28.071 4.017 33.562 7.978 3.302 2.382 4.953 4.826 4.953 7.153 0 2.091-1.324 4.095-4.012 5.879-4.57 3.026-13.594 5.542-27.629 7.695-10.829 1.666-22.445 2.885-34.541 3.639-6.682.409-13.747.708-20.986.881-4.55.11-9.33.165-14.592.18h-.441c-12.73 0-20.87-1.037-25.594-3.246-3.053-1.43-4.973-3.207-5.53-5.148a5.189 5.189 0 01-.21-1.218c-.327-3.954 3.167-8.033 10.08-11.806a61.999 61.999 0 013.167-1.619c7.7-3.655 17.76-6.603 29.108-8.52 1.401-.236 2.803-.456 4.243-.669zm29.395-1.241c-9.773 0-19.622.668-28.762 1.988a132.21 132.21 0 00-4.147.653c-11.078 1.87-20.89 4.739-28.377 8.3a58.27 58.27 0 00-3.092 1.58c-6.643 3.623-10.003 7.537-9.696 11.31.02.385.096.763.212 1.148.499 1.784 2.265 3.419 5.05 4.724 4.396 2.051 12.268 3.018 24.594 2.978 5.223-.015 9.965-.07 14.477-.18 7.2-.165 14.189-.464 20.813-.873 11.962-.739 23.462-1.949 34.157-3.592 13.613-2.091 22.329-4.504 26.649-7.373 5.3-3.513 4.954-7.977-.94-12.23-2.612-1.878-6.471-3.419-11.808-4.676-5.3-1.25-12.077-2.209-20.487-2.924-.941-.079-1.862-.157-2.784-.228a202.375 202.375 0 00-15.859-.605zm1016.196-.04c10.01-.338 15.77.299 17.59 1.934 3.47 3.089-8.79 8.63-21.24 13.645-2.66 1.077-5.1 2.303-7.45 3.49-3.55 1.784-7.21 3.623-11.82 5.038-4.23 1.297-9.76 2.098-15 2.098-4.59 0-8.94-.613-11.96-2.067-2.84-1.359-4.22-3.324-4.13-5.848.16-3.144 2.67-5.777 6.2-7.922 3.52-2.146 8.03-3.805 12.14-5.023 9.85-2.924 23.19-4.92 35.67-5.345zm15.84 2.264c-1.4-1.266-6.81-1.776-15.68-1.478-35.54 1.203-51.94 10.973-52.25 17.52-.09 2.319 1.14 4.111 3.67 5.321 5.76 2.759 17.13 2.068 24.35-.149 4.41-1.352 8-3.16 11.48-4.905 2.38-1.202 4.85-2.444 7.6-3.552 6.62-2.665 24.21-9.754 20.83-12.757zm-1048.663 8.143c7.584-.888 15.398-1.211 22.022-.92 7.565.346 13.133 1.47 16.09 3.278 3.283 1.996 2.707 3.985-1.671 5.738-4.512 1.815-11.98 2.963-17.452 3.607-6.989.826-15.034 1.329-22.061 1.384h-1.21c-6.912 0-12.269-.448-15.168-1.274-2.246-.628-3.648-1.312-4.281-2.082-1.69-1.997.115-4.033 5.184-5.888 4.358-1.587 10.944-2.947 18.547-3.843zm17.03-.236c-5.203 0-10.925.338-16.512.99-7.334.865-13.651 2.17-17.798 3.679-3.091 1.132-6.413 2.924-4.647 5.046.5.597 1.67 1.155 3.572 1.69 2.745.778 8.16 1.179 15.244 1.132 6.874-.055 14.746-.543 21.562-1.352 7.546-.888 13.306-2.067 16.646-3.411 3.744-1.502 4.205-3.05 1.421-4.748-3.321-2.02-9.83-2.704-14.707-2.924-1.536-.07-3.13-.102-4.781-.102zM1320.69 58.565c13.98.118 28.03.92 41.63 1.706 8.16.463 16.6.95 24.92 1.273 21.1.833 38.24.416 52.76-1.328v.817c-14.65 1.721-31.83 2.13-52.93 1.297-8.38-.33-16.84-.818-25.02-1.281-13.54-.779-27.53-1.58-41.4-1.698-6.29-.047-13.36.15-17.58 2.028-5.3 2.334-3.33 6.028-2.23 7.506.73.998 1.69 1.989 2.63 2.955 1.55 1.596 3.15 3.247 3.8 4.992.75 2.004.21 4.04-.31 6.005-.25.935-.5 1.91-.61 2.86-.23 2.028.29 5.73 6.39 7.695 5.46 1.745 12.56 1.447 20.1 1.124 4.11-.172 8.38-.361 12.43-.188 9.85.416 17.97 2.9 25.82 5.297 2.57.779 5.22 1.596 7.87 2.311 17.78 4.803 40.4 6.265 61.04 4.292v.809c-5.95.551-12.04.826-18.14.826-15.5 0-30.97-1.769-43.95-5.274-2.69-.731-5.38-1.541-7.95-2.335-7.66-2.334-15.57-4.747-24.88-5.14-3.86-.165-8.01.016-12.04.18-7.59.33-15.42.66-21.49-1.288-6.78-2.178-7.37-6.163-7.12-8.348.11-.974.38-1.957.63-2.908.5-1.918 1.04-3.898.31-5.8-.61-1.66-2.17-3.263-3.69-4.819-.94-.982-1.92-1.988-2.68-3.018-1.2-1.611-3.31-5.628 2.64-8.269 4.77-2.098 12.29-2.326 19.05-2.28zM622.349 0c-10.675 6.445-16.474 12.427-17.741 18.227-.749 3.427.115 6.91.922 10.281.192.763.384 1.517.537 2.28 3.034 13.715.576 27.958-7.334 42.326 1.113 2.491 2.15 4.74 3.629 6.948a23.013 23.013 0 004.224 4.747c1.363 1.164 2.995 2.303 4.588 3.404 2.304 1.611 4.704 3.27 6.356 5.077 1.056 1.148 1.804 2.335 2.553 3.482 1.517 2.358 2.938 4.583 6.605 6.359 3.974 1.934 10.426 3.152 19.162 3.639 15.782.896 31.718-.393 43.737-3.545 13.075-3.427 22.887-9.337 26.899-16.215 2.842-4.88 2.093-10.006 1.364-14.965-.308-2.067-.634-4.205-.692-6.304-.249-10.265 5.952-20.711 17.991-30.206 2.457-1.933 5.165-3.867 7.776-5.738l.604-.43 1.21-.866c7.651-5.486 15.069-11.183 16.368-17.528.73-3.561-.614-7.31-3.821-10.973h2.036c3.129 3.686 4.416 7.451 3.705 11.035-1.44 7.02-10.08 13.19-18.432 19.155-2.611 1.863-5.299 3.789-7.737 5.707-11.885 9.385-18.029 19.697-17.78 29.836.058 2.075.384 4.205.672 6.265.749 5.014 1.517 10.202-1.401 15.193-4.128 7.082-14.227 13.165-27.725 16.702-9.83 2.571-22.176 3.946-34.963 3.946-3.341 0-6.701-.094-10.061-.291-9.235-.511-16.09-1.823-20.371-3.906-3.955-1.918-5.511-4.33-7.008-6.673-.73-1.124-1.479-2.295-2.496-3.404-1.594-1.745-3.936-3.371-6.202-4.951-1.613-1.117-3.264-2.272-4.665-3.467a23.582 23.582 0 01-4.359-4.873c-1.517-2.264-2.573-4.559-3.686-7.097l-.039-.079.039-.079c7.891-14.313 10.368-28.5 7.353-42.16l-.537-2.272c-.826-3.411-1.69-6.933-.941-10.43 1.267-5.809 6.95-11.767 17.357-18.157h2.304zM1440 70.45v.817c-22.14 2.53-45.96 1.737-67.3 1.021-8.71-.29-20.85-.29-25.47 3.074-3.48 2.538-.47 5.855 4.14 7.687 5.05 2.012 12.18 3.002 19.13 3.78 24.26 2.704 47.9 3.357 69.5 1.973v.794c-7.33.472-14.86.7-22.58.7-15.26 0-31.22-.904-47.42-2.712-7.2-.802-14.6-1.831-19.97-3.97-5.24-2.09-8.47-5.73-4.47-8.638 5.16-3.757 18.04-3.78 27.3-3.466 21.35.715 45.19 1.51 67.14-1.06zM646.502 0c-4.147 3.773-8.544 8.489-9.772 13.425-.576 2.342-.461 4.724-.346 7.027l.077 1.878c.249 9.18-2.247 18.99-7.642 29.986.327 1.611.711 3.325 1.344 4.968a13.425 13.425 0 001.959 3.45c.902 1.163 2.131 2.319 3.302 3.435.96.904 1.958 1.84 2.803 2.79.384.44.73.873 1.095 1.305 1.632 1.989 3.187 3.875 6.777 5.235 3.84 1.462 9.139 1.863 12.922 1.941 10.157.236 20.429-1.108 27.494-3.576 7.719-2.688 13.095-6.925 15.975-12.576 1.632-3.215 1.708-6.563 1.766-9.801.038-1.478.077-3.01.25-4.52.806-6.555 4.896-13.645 11.827-20.483 1.017-.998 2.073-1.997 3.11-2.987 4.973-4.684 10.099-9.526 10.464-14.73.154-2.24-.595-4.519-2.227-6.767h1.978c1.593 2.256 2.323 4.543 2.169 6.791-.365 5.353-5.587 10.273-10.617 15.02-1.037.99-2.093 1.981-3.092 2.972-6.854 6.76-10.905 13.755-11.692 20.223-.173 1.494-.212 3.019-.25 4.488-.058 3.278-.134 6.658-1.824 9.951-2.957 5.832-8.544 10.21-16.589 13.016-6.969 2.437-16.454 3.789-26.361 3.789-.826 0-1.652-.008-2.477-.024-4.09-.086-9.869-.534-14.131-2.145-3.956-1.502-5.568-3.475-7.296-5.565a98.674 98.674 0 00-1.076-1.29c-.825-.927-1.804-1.854-2.745-2.75-1.21-1.132-2.458-2.303-3.399-3.506a14.196 14.196 0 01-2.016-3.56c-.652-1.69-1.036-3.443-1.363-5.086l-.019-.055.038-.055c5.376-10.965 7.872-20.735 7.623-29.876-.019-.62-.058-1.242-.077-1.87-.115-2.327-.23-4.732.365-7.13 1.209-4.896 5.453-9.565 9.542-13.338h2.131zM313.613 0c.96 2.35.729 4.928-.73 7.577-2.304 4.205-7.2 8.104-11.942 11.876l-1.671 1.345c-8.121 6.516-15.456 13.283-21.811 20.113l-.269.283c-3.571 3.86-7.276 7.844-15.283 10.352-8.237 2.578-19.065 2.971-29.529 3.018-18.874.07-37.959-.684-56.429-1.415-21.831-.864-44.41-1.76-66.624-1.28C70.905 52.7 32.602 57.896 0 66.471v-.943c32.64-8.481 70.867-13.614 109.21-14.447 22.368-.48 45.024.417 66.931 1.281 18.413.731 37.459 1.486 56.217 1.415 10.138-.04 20.602-.416 28.378-2.853 7.565-2.374 11.174-6.257 14.669-10.006l.269-.29c6.374-6.855 13.728-13.646 21.888-20.193l1.67-1.344c4.685-3.726 9.523-7.577 11.789-11.688 1.421-2.602 1.613-5.125.633-7.404h1.959zm546.451 0c3.667 10.367-2.246 22.008-17.184 33.02l-1.037.754c-2.477 1.808-5.03 3.663-6.086 5.675-1.325 2.492.269 4.944 4.013 6.241 4.646 1.604 10.944 1.329 17.606 1.038 3.917-.165 7.949-.346 11.77-.134 5.472.307 10.368 1.423 15.129 2.507 4.973 1.14 9.677 2.21 14.995 2.437 12.692.542 22.81-4.056 26.573-6.052 2.496-1.336 4.781-2.79 6.989-4.197 3.629-2.32 7.373-4.709 12.269-6.69 4.32-1.736 9.446-3.12 14.4-4.448 3.993-1.077 8.121-2.185 11.769-3.474C989.126 20.365 994.982 10.328 998.112 0h1.918c-3.166 10.524-9.099 20.774-27.512 27.274-3.744 1.32-7.91 2.445-11.961 3.53-4.877 1.312-9.927 2.672-14.112 4.362-4.743 1.91-8.429 4.268-12 6.547-2.227 1.423-4.531 2.885-7.085 4.252-3.725 1.989-13.421 6.398-25.997 6.398-.749 0-1.517-.015-2.285-.047-5.721-.244-10.828-1.407-15.744-2.53-4.588-1.046-9.331-2.123-14.457-2.414-3.591-.196-7.507-.023-11.29.142-6.777.29-13.766.597-19.046-1.227-5.203-1.8-5.818-4.794-4.666-7.003 1.114-2.122 3.744-4.04 6.298-5.895l1.017-.754C855.974 21.733 861.811 10.225 858.125 0h1.939zM275.136 0c2.17 3.089 2.842 6.547 1.901 10.155-1.517 5.73-6.816 11.208-11.789 15.814-4.512 4.158-10.099 8.874-19.622 12.183-8.621 2.995-20.736 4.842-35.04 5.337-10.618.362-21.389.008-31.815-.33l-5.664-.188a1295.239 1295.239 0 00-102.355.92C49.056 44.95 22.81 46.83 0 51.804v-.88c22.867-4.905 48.922-6.76 70.522-7.813a1296.99 1296.99 0 01102.72-.92c1.9.056 3.782.118 5.683.181 10.349.338 21.043.692 31.507.33 13.882-.48 25.632-2.263 33.946-5.148 9.216-3.207 14.688-7.828 19.104-11.908 4.934-4.543 10.156-9.95 11.654-15.578.941-3.592.23-7.02-2.016-10.069h2.016zm395.27 0c-.115 6.98-3.456 13.92-6.72 20.656-2.208 4.551-4.473 9.251-5.74 13.912-.749 2.798-.788 7.735 7.392 9.267 6.643 1.25 14.534-.715 18.009-3.262 3.111-2.255 3.898-4.944 4.685-7.545.134-.48.288-.967.442-1.447 1.113-3.395 3.033-6.783 4.896-10.06 1.478-2.626 3.033-5.345 4.128-8.041 2.131-5.18 2.227-9.636.23-13.48h1.958c1.959 3.906 1.863 8.402-.288 13.614-1.113 2.72-2.668 5.447-4.166 8.087-1.843 3.262-3.763 6.626-4.858 9.983-.153.48-.307.959-.441 1.438-.807 2.68-1.613 5.447-4.915 7.837-3.053 2.224-9.178 4.047-15.36 4.047-1.728 0-3.456-.141-5.108-.456-9.292-1.744-9.312-7.058-8.505-10.068 1.267-4.693 3.552-9.416 5.741-13.975C665.05 13.81 668.371 6.9 668.486 0h1.92zm413.304 0c-.91 8.34-4.46 16.569-10.6 24.586-2.48 3.215-4.67 6.83.44 9.047 4.07 1.76 10.96 1.73 16.49 1.51 12.1-.488 24.17-1.667 35.83-2.8 4.93-.479 10.04-.982 15.09-1.422 70.41-6.123 142.14-2.538 215.56 2.012 25.59 1.588 55.62 3.45 83.48 1.494v.801c-8.52.598-17.26.834-26 .834-19.95 0-39.91-1.242-57.77-2.35-73.25-4.544-144.79-8.12-214.87-2.02-5.03.44-10.12.935-15.05 1.414-11.73 1.14-23.85 2.319-36.08 2.814-5.51.22-13.38.283-18.08-1.753-5.82-2.523-3.5-6.39-.87-9.817 6.07-7.93 9.58-16.097 10.49-24.35h1.94zM895.373 0c2.995 9.204.019 18.801-8.583 27.384-.825.818-1.593 1.604-1.382 2.358.384 1.415 4.224 2.319 7.699 2.382 5.607.086 10.714-1.352 15.859-2.963l16.551-5.212c4.377-1.383 9.331-2.94 12.307-4.998 2.515-1.745 3.571-3.79 4.589-5.77L949.19 0h1.959l-6.855 13.346c-1.056 2.036-2.131 4.15-4.819 6.005-3.149 2.185-8.275 3.797-12.787 5.22l-16.57 5.21c-5.241 1.651-10.464 3.129-16.473 3.129h-.615c-4.281-.07-9.024-1.242-9.542-3.081-.269-.96.653-1.871 1.478-2.68C893.51 18.611 896.448 9.101 893.453 0h1.92zm-661.21 0c2.381 4.134 1.863 9.157-1.689 14.132-1.69 2.374-3.936 4.56-6.624 6.461-2.688 1.91-5.818 3.537-9.236 4.795-12.268 4.52-28.953 5.007-45.081 5.478-2.842.087-5.664.165-8.429.268-23.002.88-45.446 1.367-66.7 1.461-3.994.024-8.142.071-12.385.118-5.817.063-11.808.134-17.856.134-18.566 0-37.593-.637-52.992-3.93C8.218 27.864 3.782 26.457 0 24.798V23.62c3.917 1.879 8.678 3.459 14.054 4.606 19.968 4.26 46.503 3.962 69.908 3.702 4.262-.047 8.428-.094 12.422-.118 21.216-.094 43.603-.581 66.547-1.454 2.765-.11 5.607-.188 8.467-.275 1.24-.035 2.482-.071 3.726-.11l1.865-.058c13.993-.454 27.937-1.278 38.339-5.106 6.586-2.429 12.019-6.296 15.302-10.894 3.514-4.92 3.994-9.88 1.575-13.912h1.958zM73.651 0c-2.218.142-4.473.295-6.718.47L65.81.56c-.56.045-1.12.093-1.677.142l-1.112.1c-14.424 1.34-27.335 3.943-26.254 11.16.518 3.499 4.992 6.69 11.923 8.521 3.36.888 7.488 1.549 12.269 1.965 10.963.943 23.174.723 33.965.527 1.555-.024 3.091-.055 4.589-.079 11.788-.173 23.769-.574 35.347-.967l6.201-.204c.768-.024 1.536-.047 2.304-.063l2.439-.063c9.849-.243 20.045-.503 28.281-2.562 5.799-1.454 10.426-3.694 13.018-6.304 4.186-4.236 2.074-8.583-5.549-11.35A45.261 45.261 0 00176.87 0h3.476a34.54 34.54 0 012.476.802c8.256 2.987 10.56 7.671 6.048 12.222-2.745 2.767-7.641 5.14-13.785 6.681-8.64 2.17-19.066 2.429-29.165 2.68l-2.419.055-2.285.071-6.182.204c-11.616.393-23.616.794-35.444.967-1.497.024-3.033.055-4.57.079-4.626.086-9.522.173-14.457.173-6.72 0-13.555-.165-20.006-.723-5.011-.433-9.35-1.124-12.903-2.068-7.45-1.965-12.25-5.384-12.806-9.133C33.658 4.166 48 1.383 63.034 0H73.65zM1120.86 0c.42 4.559-1.9 9.157-6.78 13.252l-.29.244c-.92.762-1.86 1.548-1.92 2.35-.15 1.768 4.03 3.175 8.18 3.513 4.36.362 8.97-.118 13.4-.582l.21-.023c46.01-4.803 93.35-6.681 140.76-5.573 14.17.33 28.53.936 42.41 1.525 18.45.778 37.54 1.588 56.37 1.745 25.48.228 47.58-.818 66.8-3.168v.818c-19.28 2.326-41.4 3.364-66.84 3.136-18.91-.165-38.03-.967-56.52-1.753-13.86-.581-28.2-1.194-42.34-1.525-47.19-1.092-94.34.77-140.16 5.557l-.21.024c-3.47.361-7.04.73-10.63.73-1.21 0-2.42-.038-3.63-.14-4.92-.401-9.91-2.123-9.72-4.316.08-.966 1.12-1.831 2.11-2.664l.31-.244c4.74-3.993 7.01-8.473 6.59-12.906h1.9zM124.186 6.304c3.955 0 7.948.094 11.904.275 8.313.377 11.174 2.02 11.078 3.435-.115 1.792-5.03 3.812-13.901 4.024-2.515.063-5.03-.008-7.469-.07a184.85 184.85 0 00-5.587-.087c-4.128.008-8.352.298-12.441.573-4.244.284-8.564.574-12.864.574-2.65 0-5.3-.11-7.93-.408-2.554-.283-4.224-.731-5.069-1.368-1.171-.865-.653-2.06 1.229-2.908 1.613-.74 3.898-1.14 5.894-1.462 10.599-1.69 22.752-2.578 35.156-2.578zm11.692 1.053c-16.07-.739-32.467.063-46.156 2.256-1.786.29-3.821.644-5.165 1.257-1.133.511-1.843 1.368-.98 2.005.596.44 1.882.762 3.917.99 6.432.723 12.999.283 19.968-.189 4.148-.283 8.468-.573 12.73-.581 1.92-.008 3.859.04 5.722.086 2.38.063 4.857.126 7.238.071 7.45-.173 12-1.792 12.096-3.262.096-1.352-3.494-2.366-9.37-2.633z" fill="#fff" fill-opacity=".06"/></svg>