<svg width="1920" height="793" viewBox="0 0 1920 793" fill="none" xmlns="http://www.w3.org/2000/svg">
<path fill-rule="evenodd" clip-rule="evenodd" d="M0 0H1920V772.078C1920 772.078 1548.22 680.911 1348.74 689.349C952.166 706.122 908.176 777.515 558.979 788.442C238.063 798.483 0 715.219 0 715.219V0Z" fill="url(#paint0_linear_0_3564)"/>
<rect opacity="0.1" width="983.896" height="143.129" rx="71.5643" transform="matrix(0.882205 -0.470866 0.52971 0.848179 684.481 558.619)" fill="white"/>
<rect opacity="0.5" width="89.3115" height="10.7346" rx="5.36732" transform="matrix(0.882205 -0.470866 0.52971 0.848179 865.583 392.25)" fill="url(#paint1_linear_0_3564)"/>
<rect opacity="0.5" width="74.4262" height="14.5687" rx="7.28437" transform="matrix(0.882205 -0.470866 0.52971 0.848179 712.677 500.44)" fill="url(#paint2_linear_0_3564)"/>
<rect width="74.4262" height="14.5687" rx="7.28437" transform="matrix(0.882205 -0.470866 0.52971 0.848179 1008.36 691.083)" fill="url(#paint3_linear_0_3564)"/>
<rect opacity="0.05" width="731.191" height="143.129" rx="71.5643" transform="matrix(0.882205 -0.470866 0.52971 0.848179 90.98 344.293)" fill="white"/>
<rect opacity="0.1" width="882.969" height="143.129" rx="71.5643" transform="matrix(0.882205 -0.470866 0.52971 0.848179 1065.22 612.736)" fill="white"/>
<rect opacity="0.05" width="731.191" height="143.129" rx="71.5643" transform="matrix(0.882205 -0.470866 0.52971 0.848179 849.147 599.419)" fill="white"/>
<path opacity="0.1" fill-rule="evenodd" clip-rule="evenodd" d="M0 674.262C112.555 675.061 183.496 697.698 362.134 725.906C540.773 754.115 941.591 745.578 941.591 745.578C941.591 745.578 402.569 840.642 0 738.889" fill="white"/>
<path opacity="0.1" fill-rule="evenodd" clip-rule="evenodd" d="M124.682 765.17C124.682 765.17 455.11 723.189 678.711 714.21C902.311 705.231 1216.09 722.394 1216.09 722.394C1216.09 722.394 1126.82 723.749 766.242 770.802C405.661 817.855 124.682 765.17 124.682 765.17Z" fill="white"/>
<path opacity="0.2" fill-rule="evenodd" clip-rule="evenodd" d="M1297.91 718.697C1403.28 699.409 1587.45 689.282 1786.1 708.773V777.753C1786.1 777.753 1473.38 723.245 1297.91 718.697Z" fill="white"/>
<defs>
<linearGradient id="paint0_linear_0_3564" x1="-945.879" y1="394.761" x2="-384.564" y2="1739.72" gradientUnits="userSpaceOnUse">
<stop stop-color="#250E8A"/>
<stop offset="1" stop-color="#00F9F7"/>
</linearGradient>
<linearGradient id="paint1_linear_0_3564" x1="89.3115" y1="0" x2="0" y2="0" gradientUnits="userSpaceOnUse">
<stop stop-color="white" stop-opacity="0.01"/>
<stop offset="1" stop-color="#06CCE2"/>
<stop offset="1" stop-color="white"/>
</linearGradient>
<linearGradient id="paint2_linear_0_3564" x1="74.4262" y1="0" x2="0" y2="0" gradientUnits="userSpaceOnUse">
<stop stop-color="white" stop-opacity="0.01"/>
<stop offset="1" stop-color="#06CCE2"/>
<stop offset="1" stop-color="white"/>
</linearGradient>
<linearGradient id="paint3_linear_0_3564" x1="74.4262" y1="0" x2="0" y2="0" gradientUnits="userSpaceOnUse">
<stop stop-color="white" stop-opacity="0.01"/>
<stop offset="1" stop-color="#06CCE2"/>
<stop offset="1" stop-color="white"/>
</linearGradient>
</defs>
</svg>
