<svg width="218" height="218" viewBox="0 0 218 218" fill="none" xmlns="http://www.w3.org/2000/svg">
<g filter="url(#filter0_i_2_125)">
<path d="M23 86H195V172H23V86Z" fill="#EDEDED"/>
</g>
<path d="M23 172H195V181.5C195 182.748 194.766 183.983 194.312 185.136C193.857 186.289 193.19 187.336 192.349 188.218C191.509 189.101 190.511 189.8 189.412 190.278C188.314 190.755 187.136 191 185.947 191H32.0526C30.8637 191 29.6864 190.755 28.588 190.278C27.4895 189.8 26.4914 189.101 25.6507 188.218C24.81 187.336 24.1432 186.289 23.6884 185.136C23.2336 183.983 22.9997 182.748 23 181.5V172Z" fill="#CACACA"/>
<path d="M123 113C123 111.895 123.895 111 125 111H171C172.105 111 173 111.895 173 113V191H123V113Z" fill="#656565"/>
<path d="M161.864 142C160.146 142 159 143.146 159 144.864V156.32C159 158.038 160.146 159.184 161.864 159.184C163.582 159.184 164.728 158.038 164.728 156.32V144.864C164.728 143.146 163.582 142 161.864 142Z" fill="#CACACA"/>
<path d="M105 111H40C38.8954 111 38 111.895 38 113V159C38 160.105 38.8954 161 40 161H105C106.105 161 107 160.105 107 159V113C107 111.895 106.105 111 105 111Z" fill="#656565"/>
<path d="M103 114H42C41.4477 114 41 114.448 41 115V157C41 157.552 41.4477 158 42 158H103C103.552 158 104 157.552 104 157V115C104 114.448 103.552 114 103 114Z" fill="#FF5E3E"/>
<path d="M190.715 72.6536H27.2451L13.6226 86.2761V90.8169C13.6222 92.0097 13.8569 93.1907 14.3132 94.2927C14.7695 95.3947 15.4384 96.396 16.2818 97.2394C17.1252 98.0828 18.1265 98.7517 19.2284 99.208C20.3304 99.6643 21.5115 99.8989 22.7042 99.8986H195.256C196.449 99.8989 197.63 99.6643 198.732 99.208C199.834 98.7517 200.835 98.0828 201.679 97.2394C202.522 96.396 203.191 95.3947 203.647 94.2927C204.104 93.1907 204.338 92.0097 204.338 90.8169V86.2761L190.715 72.6536Z" fill="#D52E0C"/>
<path d="M204.338 86.276H13.6226L21.9323 48.9503C22.1548 47.9473 22.7123 47.05 23.5129 46.4062C24.3135 45.7624 25.3096 45.4105 26.3369 45.4084H191.624C192.651 45.4105 193.647 45.7624 194.448 46.4062C195.248 47.05 195.806 47.9473 196.028 48.9503L204.338 86.276Z" fill="#FF5634"/>
<path d="M95 158H50C50.1671 156.525 50.8484 155.18 51.8988 154.251C52.9492 153.322 54.2861 152.883 55.625 153.027H89.375C90.7139 152.883 92.0508 153.322 93.1012 154.251C94.1516 155.18 94.8329 156.525 95 158Z" fill="#343434"/>
<path d="M108.98 76.8195C127.984 76.8195 143.39 61.4137 143.39 42.4098C143.39 23.4058 127.984 8 108.98 8C89.9762 8 74.5704 23.4058 74.5704 42.4098C74.5704 61.4137 89.9762 76.8195 108.98 76.8195Z" fill="#FDB52A"/>
<path opacity="0.9" fill-rule="evenodd" clip-rule="evenodd" d="M104.065 25.2048C104.064 23.8474 102.964 22.7471 101.607 22.7471C100.249 22.7471 99.1489 23.8474 99.1488 25.2048C99.1488 23.8474 98.0484 22.7471 96.691 22.7471C95.3336 22.7471 94.2332 23.8474 94.2332 25.2048V25.2049V35.0362C94.2332 36.9918 95.01 38.8673 96.3928 40.2501C97.1779 41.0351 98.1217 41.6249 99.1488 41.988V59.6146C99.1489 60.972 100.249 62.0724 101.607 62.0724C102.964 62.0724 104.064 60.972 104.065 59.6146V41.988C105.092 41.6248 106.035 41.0351 106.821 40.2501C108.203 38.8673 108.98 36.9918 108.98 35.0362V25.208V25.2049C108.98 23.8475 107.88 22.7471 106.522 22.7471C105.165 22.7471 104.065 23.8474 104.065 25.2048ZM118.812 59.6146C118.812 60.972 117.711 62.0724 116.354 62.0724C114.996 62.0724 113.896 60.972 113.896 59.6146V47.3255V39.9519V22.7471C123.727 25.2049 126.185 42.4098 126.185 47.3255H118.812V59.6146Z" fill="white"/>
<path d="M75 114H70V127H75V114Z" fill="#343434"/>
<path d="M72.6535 140.766C76.4153 140.766 79.4648 137.717 79.4648 133.955C79.4648 130.193 76.4153 127.144 72.6535 127.144C68.8918 127.144 65.8423 130.193 65.8423 133.955C65.8423 137.717 68.8918 140.766 72.6535 140.766Z" fill="url(#paint0_linear_2_125)"/>
<path d="M72.6535 122.603C69.0406 122.603 65.5757 124.038 63.021 126.593C60.4662 129.147 59.031 132.612 59.031 136.225H86.2761C86.2761 132.612 84.8408 129.147 82.2861 126.593C79.7314 124.038 76.2665 122.603 72.6535 122.603Z" fill="url(#paint1_linear_2_125)"/>
<defs>
<filter id="filter0_i_2_125" x="23" y="86" width="172" height="90" filterUnits="userSpaceOnUse" color-interpolation-filters="sRGB">
<feFlood flood-opacity="0" result="BackgroundImageFix"/>
<feBlend mode="normal" in="SourceGraphic" in2="BackgroundImageFix" result="shape"/>
<feColorMatrix in="SourceAlpha" type="matrix" values="0 0 0 0 0 0 0 0 0 0 0 0 0 0 0 0 0 0 127 0" result="hardAlpha"/>
<feOffset dy="4"/>
<feGaussianBlur stdDeviation="12"/>
<feComposite in2="hardAlpha" operator="arithmetic" k2="-1" k3="1"/>
<feColorMatrix type="matrix" values="0 0 0 0 0 0 0 0 0 0 0 0 0 0 0 0 0 0 0.05 0"/>
<feBlend mode="normal" in2="shape" result="effect1_innerShadow_2_125"/>
</filter>
<linearGradient id="paint0_linear_2_125" x1="283.803" y1="547.112" x2="283.803" y2="528.967" gradientUnits="userSpaceOnUse">
<stop stop-color="#FFD869"/>
<stop offset="1" stop-color="#FEC52B"/>
</linearGradient>
<linearGradient id="paint1_linear_2_125" x1="72.6535" y1="148.985" x2="72.6535" y2="107.509" gradientUnits="userSpaceOnUse">
<stop stop-color="#FED100"/>
<stop offset="1" stop-color="#E38101"/>
</linearGradient>
</defs>
</svg>
