<svg width="218" height="218" viewBox="0 0 218 218" fill="none" xmlns="http://www.w3.org/2000/svg">
<path d="M67.545 101.411H15.8929V52.6277C15.8929 51.0503 17.1842 49.759 18.7616 49.759H64.6764C66.2537 49.759 67.545 51.0503 67.545 52.6277V101.411Z" fill="#FDB52A"/>
<path opacity="0.6" d="M29 58.2549C29 56.3219 30.567 54.7549 32.5 54.7549H50.5C52.433 54.7549 54 56.3219 54 58.2549C54 60.1879 52.433 61.7549 50.5 61.7549H32.5C30.567 61.7549 29 60.1879 29 58.2549Z" fill="white"/>
<path d="M174.823 157.036C174.823 170.2 164.146 180.876 150.983 180.876C137.82 180.876 127.144 170.2 127.144 157.036C127.144 143.873 137.82 133.197 150.983 133.197C164.146 133.197 174.823 143.873 174.823 157.036Z" fill="#3F3F3F"/>
<path d="M162.903 157.036C162.903 163.62 157.571 168.956 150.983 168.956C144.395 168.956 139.063 163.624 139.063 157.036C139.063 150.449 144.395 145.117 150.983 145.117C157.571 145.117 162.903 150.449 162.903 157.036Z" fill="#929292"/>
<path d="M152.978 121.277C136.517 121.277 123.17 135.509 123.17 153.063H178.696C180.989 153.063 182.805 150.894 182.479 148.47C180.393 133.094 167.981 121.277 152.978 121.277Z" fill="#D42E0C"/>
<path d="M71.5183 157.036C71.5183 170.2 60.8422 180.876 47.6789 180.876C34.5156 180.876 23.8395 170.2 23.8395 157.036C23.8395 143.873 34.5156 133.197 47.6789 133.197C60.8422 133.197 71.5183 143.873 71.5183 157.036Z" fill="#3F3F3F"/>
<path d="M59.5986 157.036C59.5986 163.62 54.2665 168.956 47.6789 168.956C41.0912 168.956 35.7592 163.624 35.7592 157.036C35.7592 150.449 41.0912 145.117 47.6789 145.117C54.2665 145.117 59.5986 150.449 59.5986 157.036Z" fill="#929292"/>
<path d="M133.103 61.6789H146.072C148.786 61.6789 150.983 59.4817 150.983 56.768V38.7771C150.983 36.0634 148.786 33.8662 146.072 33.8662H133.103C125.423 33.8662 119.197 40.0923 119.197 47.7725C119.197 55.4528 125.423 61.6789 133.103 61.6789Z" fill="#D42E0C"/>
<path d="M135.09 61.6787H127.144H111.251V69.6252H125.761L113.611 139.499C113.444 140.448 112.621 141.143 111.652 141.143H88.1621C87.3397 141.143 86.6046 140.639 86.3066 139.868L72.4957 103.958C71.9076 102.424 70.4336 101.411 68.7886 101.411H35.7591C21.5429 108.519 10.5092 125.163 8.33584 145.653C7.91467 149.63 11.1568 153.063 15.1579 153.063H119.197H127.144L158.929 121.277C157.475 101.721 147.01 73.5984 135.09 61.6787Z" fill="#FF5634"/>
<path d="M99.331 69.6252H111.251V61.6787H99.331C97.1378 61.6787 95.3578 63.4587 95.3578 65.6519C95.3578 67.8452 97.1378 69.6252 99.331 69.6252Z" fill="#D42E0C"/>
<path d="M13.9064 109.358H74.5817L72.4998 103.954C71.9077 102.42 70.4337 101.411 68.7927 101.411H13.9064C12.8098 101.411 11.9198 102.301 11.9198 103.398V107.371C11.9198 108.468 12.8098 109.358 13.9064 109.358Z" fill="#D42E0C"/>
<path d="M192.5 47.7549C186.002 47.7549 179.771 50.3361 175.176 54.9308C170.581 59.5254 168 65.7571 168 72.2549C168 78.7527 170.581 84.9844 175.176 89.579C179.771 94.1736 186.002 96.7549 192.5 96.7549C198.998 96.7549 205.229 94.1736 209.824 89.579C214.419 84.9844 217 78.7527 217 72.2549C217 65.7571 214.419 59.5254 209.824 54.9308C205.229 50.3361 198.998 47.7549 192.5 47.7549Z" fill="#4CAF50"/>
<path d="M206.5 62.9229C205.588 62.0114 204.109 62.0122 203.198 62.9245L189.016 77.124L184.133 72.2521C183.221 71.3421 181.744 71.3434 180.834 72.2552C179.923 73.1674 179.924 74.6454 180.837 75.556L186.899 81.6042C188.071 82.7739 189.97 82.7724 191.14 81.6007L206.501 66.2238C207.412 65.3118 207.412 63.834 206.5 62.9229Z" fill="white"/>
</svg>
