<svg width="218" height="218" viewBox="0 0 218 218" fill="none" xmlns="http://www.w3.org/2000/svg">
<path fill-rule="evenodd" clip-rule="evenodd" d="M79.4989 7.13864C75.4486 7.30547 72.5702 8.1804 70.1286 9.98687C67.227 12.1336 65.4361 15.3277 64.8857 19.3376C64.6569 21.0047 64.6587 20.9093 64.6383 32.5329L64.6188 43.7091H64.4152C64.267 43.7091 64.1969 43.7365 64.1578 43.8095C64.1224 43.8756 64.1039 44.9988 64.1039 47.095C64.1039 50.6462 64.0905 50.5109 64.4444 50.5109H64.6233V53.6002C64.6233 56.6365 64.6215 56.6896 64.5212 56.6896C64.2805 56.6896 64.2857 56.5405 64.2857 63.3356C64.2857 66.8627 64.3046 69.8368 64.3275 69.9453C64.3561 70.0803 64.4093 70.1602 64.4963 70.2002L64.6233 70.2578V72.0408C64.6233 73.5788 64.6127 73.8238 64.5466 73.8238C64.5044 73.8238 64.4285 73.8872 64.3778 73.9645C64.291 74.0969 64.2857 74.4682 64.2857 80.5716C64.2857 87.4066 64.2819 87.2981 64.5191 87.3604C64.6208 87.3869 64.6216 87.6491 64.6387 130.412C64.652 163.628 64.6704 173.59 64.719 174.111C64.8296 175.296 64.9341 176.064 65.0895 176.837C65.9482 181.104 68.3594 184.365 72.0328 186.225C74.0323 187.237 76.1411 187.733 79.1355 187.895C80.4067 187.964 137.131 187.965 138.508 187.896C142.673 187.687 145.337 186.831 147.93 184.868C148.51 184.429 149.728 183.196 150.197 182.574C151.813 180.428 152.643 178.163 153.03 174.838C153.116 174.104 153.123 171.44 153.149 128.431L153.176 82.8027L153.302 82.7399C153.372 82.7051 153.452 82.6064 153.482 82.5208C153.552 82.3172 153.589 62.9789 153.521 62.062C153.473 61.4015 153.424 61.2587 153.249 61.2587C153.155 61.2587 153.152 60.6928 153.136 41.2558C153.117 19.474 153.135 20.7854 152.84 18.9683C152.311 15.7029 151.006 13.0618 148.948 11.0867C146.804 9.02964 144.213 7.82339 140.948 7.36154C139.251 7.12135 141.096 7.13496 109.432 7.12914C93.1686 7.12613 79.6988 7.13039 79.4989 7.13864Z" fill="#656565"/>
<mask id="mask0_2_99" style="mask-type:alpha" maskUnits="userSpaceOnUse" x="68" y="11" width="81" height="173">
<path fill-rule="evenodd" clip-rule="evenodd" d="M126.54 11.3066C126.236 11.3464 126.023 11.4508 125.828 11.6566C125.593 11.9046 125.526 12.1921 125.474 13.1799C125.447 13.6802 125.401 14.2176 125.372 14.3742C125.181 15.3919 124.715 16.2449 123.979 16.9234C123.381 17.4738 122.609 17.8689 121.789 18.0436C121.37 18.133 120.718 18.1377 108.861 18.1377C96.861 18.1377 96.3572 18.1339 95.9581 18.0409C95.0328 17.8254 94.3851 17.4882 93.7648 16.8989C92.9463 16.1214 92.5047 15.2646 92.356 14.1657C92.3271 13.9515 92.2879 13.4376 92.269 13.0237C92.221 11.9712 92.0833 11.6446 91.5804 11.3908C91.4218 11.3108 90.9178 11.3055 85.1161 11.3237C78.4621 11.3445 78.3167 11.3493 76.8556 11.6001C73.2208 12.2238 70.6297 14.3649 69.5587 17.6296C69.1432 18.8962 68.9651 20.1357 68.8786 22.3638C68.7948 24.5203 68.8392 172.919 68.9238 173.878C69.0718 175.552 69.2375 176.49 69.566 177.512C70.2909 179.768 71.7269 181.497 73.7646 182.566C75.0303 183.23 76.3634 183.576 78.5382 183.805C79.3416 183.889 136.067 183.932 137.989 183.85C140.082 183.76 141.342 183.573 142.566 183.171C145.759 182.123 147.823 179.748 148.548 176.292C148.736 175.393 148.833 174.452 148.895 172.917C148.979 170.859 148.934 22.2254 148.849 21.279C148.644 18.977 148.36 17.7782 147.7 16.4243C147.241 15.4817 146.83 14.9075 146.063 14.137C144.929 12.9985 143.637 12.2713 141.965 11.8298C140.75 11.509 139.576 11.3769 137.34 11.3092C135.554 11.2552 126.949 11.2531 126.54 11.3066Z" fill="white"/>
</mask>
<g mask="url(#mask0_2_99)">
<path fill-rule="evenodd" clip-rule="evenodd" d="M68.5173 10.9465H149.256V184.106H68.5173V10.9465Z" fill="white"/>
<g filter="url(#filter0_i_2_99)">
<mask id="mask1_2_99" style="mask-type:alpha" maskUnits="userSpaceOnUse" x="84" y="31" width="50" height="50">
<path d="M109.334 80.2215C122.901 80.2215 133.899 69.2233 133.899 55.6564C133.899 42.0895 122.901 31.0913 109.334 31.0913C95.7671 31.0913 84.7689 42.0895 84.7689 55.6564C84.7689 69.2233 95.7671 80.2215 109.334 80.2215Z" fill="#FAC801"/>
</mask>
<g mask="url(#mask1_2_99)">
<path d="M109.334 80.2215C122.901 80.2215 133.899 69.2233 133.899 55.6564C133.899 42.0895 122.901 31.0913 109.334 31.0913C95.7671 31.0913 84.7689 42.0895 84.7689 55.6564C84.7689 69.2233 95.7671 80.2215 109.334 80.2215Z" fill="#FDB52A"/>
<g opacity="0.9">
<path opacity="0.9" d="M109.292 59.7498C114.815 59.7498 119.292 55.2726 119.292 49.7498C119.292 44.2269 114.815 39.7498 109.292 39.7498C103.769 39.7498 99.2921 44.2269 99.2921 49.7498C99.2921 55.2726 103.769 59.7498 109.292 59.7498Z" fill="white"/>
<path opacity="0.9" d="M109.292 80.9998C115.561 80.9998 121.276 78.676 125.665 74.8635C123.176 68.2298 116.795 63.4998 109.292 63.4998C101.79 63.4998 95.4084 68.2298 92.9197 74.8635C97.3084 78.676 103.023 80.9998 109.292 80.9998Z" fill="white"/>
</g>
</g>
</g>
<path d="M136.542 102.21H81.766C79.6939 102.21 78.0142 103.89 78.0142 105.962V105.962C78.0142 108.034 79.6939 109.714 81.766 109.714H136.542C138.614 109.714 140.294 108.034 140.294 105.962C140.294 103.89 138.614 102.21 136.542 102.21Z" fill="#3F3F3F"/>
<path d="M135.417 117.968H82.8915C80.1978 117.968 78.0142 120.152 78.0142 122.845C78.0142 125.539 80.1978 127.723 82.8915 127.723H135.417C138.111 127.723 140.294 125.539 140.294 122.845C140.294 120.152 138.111 117.968 135.417 117.968Z" fill="#EDEDED"/>
<path d="M134.666 150.984H83.6419C80.5338 150.984 78.0142 153.503 78.0142 156.612C78.0142 159.72 80.5338 162.239 83.6419 162.239H134.666C137.775 162.239 140.294 159.72 140.294 156.612C140.294 153.503 137.775 150.984 134.666 150.984Z" fill="#FF5634"/>
<path d="M101.275 133.725H82.5163C80.0299 133.725 78.0142 135.741 78.0142 138.227C78.0142 140.714 80.0299 142.729 82.5163 142.729H101.275C103.762 142.729 105.778 140.714 105.778 138.227C105.778 135.741 103.762 133.725 101.275 133.725Z" fill="#EDEDED"/>
<path d="M135.792 133.725H117.033C114.547 133.725 112.531 135.741 112.531 138.227C112.531 140.714 114.547 142.729 117.033 142.729H135.792C138.279 142.729 140.294 140.714 140.294 138.227C140.294 135.741 138.279 133.725 135.792 133.725Z" fill="#EDEDED"/>
<path d="M108.769 211C120.367 211 129.769 201.598 129.769 190C129.769 178.402 120.367 169 108.769 169C97.1711 169 87.769 178.402 87.769 190C87.769 201.598 97.1711 211 108.769 211Z" fill="#4CAF50"/>
<path d="M109.819 200.5H107.719C107.139 200.5 106.669 200.03 106.669 199.45V180.55C106.669 179.97 107.139 179.5 107.719 179.5H109.819C110.399 179.5 110.869 179.97 110.869 180.55V199.45C110.869 200.03 110.399 200.5 109.819 200.5Z" fill="white"/>
</g>
<defs>
<filter id="filter0_i_2_99" x="84.7689" y="31.0913" width="49.1302" height="53.1302" filterUnits="userSpaceOnUse" color-interpolation-filters="sRGB">
<feFlood flood-opacity="0" result="BackgroundImageFix"/>
<feBlend mode="normal" in="SourceGraphic" in2="BackgroundImageFix" result="shape"/>
<feColorMatrix in="SourceAlpha" type="matrix" values="0 0 0 0 0 0 0 0 0 0 0 0 0 0 0 0 0 0 127 0" result="hardAlpha"/>
<feOffset dy="4"/>
<feGaussianBlur stdDeviation="2"/>
<feComposite in2="hardAlpha" operator="arithmetic" k2="-1" k3="1"/>
<feColorMatrix type="matrix" values="0 0 0 0 0 0 0 0 0 0 0 0 0 0 0 0 0 0 0.01 0"/>
<feBlend mode="normal" in2="shape" result="effect1_innerShadow_2_99"/>
</filter>
</defs>
</svg>
