<svg width="63" height="56" viewBox="0 0 63 56" fill="none" xmlns="http://www.w3.org/2000/svg">
<path d="M0 13.6665V41.6665C0 44.2437 2.0895 46.3332 4.66667 46.3332C4.66667 46.3332 42 46.3332 43.1667 46.3332C44.3333 46.3332 44.3333 45.1712 44.3333 45.1712V13.6665H0Z" fill="#F57C00"/>
<path d="M43.1667 9H4.66667C2.0895 9 0 11.0883 0 13.6655C0 16.2427 2.0895 18.3333 4.66667 18.3333C4.66667 18.3333 42 18.3333 43.1667 18.3333C44.3333 18.3333 44.3333 19.5 44.3333 19.5V10.1667C44.3333 9.52267 43.8118 9 43.1667 9Z" fill="#942A09"/>
<path d="M4.66675 13.6665V18.3332C13.187 18.3332 42.1716 18.3332 43.1668 18.3332C44.3335 18.3332 44.3335 19.5022 44.3335 19.5022V43.9998H46.6668V18.3332V14.8332V13.6665H4.66675Z" fill="#4CAF50"/>
<path d="M4.66675 16V18.3333C11.094 18.3333 29.2275 18.3333 38.1303 18.3333C37.785 17.6077 37.5505 16.8225 37.4291 16H4.66675Z" fill="#C8E6C9"/>
<path d="M49 27.5C49 26.9477 48.5523 26.5 48 26.5H38.5C35.9229 26.5 33.8334 28.5895 33.8334 31.1667C33.8334 33.7438 35.9229 35.8333 38.5 35.8333H48C48.5523 35.8333 49 35.3856 49 34.8333V27.5Z" fill="#BF360C"/>
<path d="M38.5 28.833C37.8812 28.833 37.2878 29.0788 36.8502 29.5164C36.4126 29.954 36.1667 30.5475 36.1667 31.1663C36.1667 31.7852 36.4126 32.3787 36.8502 32.8163C37.2878 33.2538 37.8812 33.4997 38.5 33.4997C39.1189 33.4997 39.7124 33.2538 40.1499 32.8163C40.5875 32.3787 40.8335 31.7852 40.8335 31.1663C40.8335 30.5475 40.5875 29.954 40.1499 29.5164C39.7124 29.0788 39.1189 28.833 38.5 28.833Z" fill="#FFECB3"/>
</svg>
