<svg width="63" height="35" viewBox="0 0 63 35" fill="none" xmlns="http://www.w3.org/2000/svg">
<path d="M2.35217 1.5752H61.4341V33H2.35217V1.5752Z" fill="#A5D6A7"/>
<path d="M0 31.6552C0 33.312 1.34315 34.6552 3 34.6552H60.0094C61.6663 34.6552 63.0094 33.312 63.0094 31.6552V2C63.0094 0.8954 62.114 0 61.0094 0H2C0.895433 0 0 0.8954 0 2V31.6552ZM59.8589 3.1505V31.5047H3.15047V3.1505H59.8589Z" fill="#388E3C"/>
<path d="M12.6018 14.1771C11.7663 14.1771 10.965 14.509 10.3741 15.0998C9.78329 15.6907 9.45137 16.492 9.45137 17.3275C9.45137 18.1631 9.78329 18.9644 10.3741 19.5553C10.965 20.1461 11.7663 20.478 12.6018 20.478C13.4374 20.478 14.2387 20.1461 14.8296 19.5553C15.4204 18.9644 15.7523 18.1631 15.7523 17.3275C15.7523 16.492 15.4204 15.6907 14.8296 15.0998C14.2387 14.509 13.4374 14.1771 12.6018 14.1771ZM50.4075 14.1771C49.5719 14.1771 48.7706 14.509 48.1798 15.0998C47.5889 15.6907 47.257 16.492 47.257 17.3275C47.257 18.1631 47.5889 18.9644 48.1798 19.5553C48.7706 20.1461 49.5719 20.478 50.4075 20.478C51.2431 20.478 52.0444 20.1461 52.6352 19.5553C53.226 18.9644 53.558 18.1631 53.558 17.3275C53.558 16.492 53.226 15.6907 52.6352 15.0998C52.0444 14.509 51.2431 14.1771 50.4075 14.1771ZM31.5047 6.30089C28.5802 6.30089 25.7756 7.4626 23.7077 9.5305C21.6398 11.5984 20.478 14.4031 20.478 17.3275C20.478 20.252 21.6398 23.0567 23.7077 25.1246C25.7756 27.1925 28.5802 28.3542 31.5047 28.3542C34.4291 28.3542 37.2338 27.1925 39.3017 25.1246C41.3696 23.0567 42.5313 20.252 42.5313 17.3275C42.5313 14.4031 41.3696 11.5984 39.3017 9.5305C37.2338 7.4626 34.4291 6.30089 31.5047 6.30089ZM54.7851 1.5752C54.0305 2.4132 53.558 3.5096 53.558 4.7257C53.558 7.3358 55.6735 9.4514 58.2837 9.4514C59.4998 9.4514 60.5961 8.9788 61.4341 8.2243V1.5752H54.7851ZM8.22426 1.5752H1.5752V8.2243C2.41322 8.9788 3.50958 9.4514 4.72567 9.4514C7.33582 9.4514 9.45137 7.3358 9.45137 4.7257C9.45137 3.5096 8.9788 2.4132 8.22426 1.5752ZM8.22426 33.0799C8.9788 32.2419 9.45137 31.1455 9.45137 29.9294C9.45137 27.3193 7.33582 25.2037 4.72567 25.2037C3.50958 25.2037 2.41322 25.6763 1.5752 26.4308V33.0799H8.22426ZM61.4341 33.0799V26.4308C60.5961 25.6763 59.4998 25.2037 58.2837 25.2037C55.6735 25.2037 53.558 27.3193 53.558 29.9294C53.558 31.1455 54.0305 32.2419 54.7851 33.0799H61.4341Z" fill="#388E3C"/>
</svg>
