<svg width="250" height="256" viewBox="0 0 250 256" fill="none" xmlns="http://www.w3.org/2000/svg">
<path fill-rule="evenodd" clip-rule="evenodd" d="M78.466 19.5539C124.835 4.32952 211.147 -24.0073 242.683 40.049C250.558 56.063 252.137 76.0439 247.126 96.3369C243.161 112.424 235.304 128.751 222.436 147.721C209.935 166.16 194.534 184.708 173.975 206.103C157.931 222.797 143.76 235.799 126.744 244.926C113.086 252.254 99.0253 256 85.7352 256C79.2737 256 73.0141 255.118 67.0666 253.337C49.0772 247.956 32.6115 233.448 21.8729 213.522C12.0338 195.249 7.51813 174.607 4.12218 155.031C-1.20121 124.398 -4.23003 89.4134 13.5574 62.1234C29.3624 37.8635 58.1821 26.2019 78.466 19.5539ZM241.031 40.857C210.192 -21.7484 124.871 6.23946 79.035 21.2985C59.0081 27.8731 30.5922 39.3511 15.0994 63.1334C-2.35767 89.8909 0.671154 124.435 5.93947 154.718C9.31706 174.148 13.7777 194.607 23.4883 212.641C34.0066 232.144 50.0685 246.34 67.599 251.574C85.0927 256.808 106.331 253.796 125.862 243.31C142.677 234.293 156.738 221.401 172.653 204.817C193.139 183.514 208.467 165.039 220.931 146.693C233.67 127.906 241.435 111.763 245.345 95.8961C250.264 76.0255 248.723 56.4854 241.031 40.857ZM86.7081 47.1377C124.467 33.2907 178.123 19.1866 207.953 56.4854C214.653 64.8414 218.012 74.0788 218.012 84.0325C218.012 88.8624 217.223 93.876 215.644 99.0365C211.018 114.187 201.675 128.438 193.139 140.376C182.914 154.645 171.276 168.621 157.546 183.092C147.468 193.725 136.326 204.56 123.146 211.851C112.793 217.599 101.705 220.593 91.3339 220.593C87.0752 220.593 82.9266 220.097 79.0167 219.068C65.3044 215.487 52.7669 205.221 44.635 190.897C36.9436 177.252 33.6945 161.495 31.5284 147.85C31.2714 146.326 31.0512 144.783 30.8309 143.24C28.3528 125.518 26.5538 99.6242 39.6053 79.5515C48.5082 65.8698 63.4687 55.5672 86.7081 47.1377ZM153.232 34.4293C130.764 34.4293 106.9 41.6834 87.3505 48.864C64.4967 57.1465 49.8115 67.2104 41.1472 80.5432C28.4262 100.12 30.2068 125.555 32.6482 142.983C32.8685 144.526 33.0887 146.05 33.3274 147.575C35.4751 161.036 38.6875 176.609 46.232 189.979C54.1253 203.899 66.2406 213.853 79.4756 217.287C92.472 220.685 108.075 218.132 122.246 210.253C135.206 203.073 146.238 192.348 156.224 181.825C169.9 167.427 181.483 153.506 191.652 139.292C200.096 127.484 209.348 113.398 213.9 98.5039C218.544 83.2979 216.066 69.5427 206.521 57.624C199.619 48.9926 191.377 43.1893 182.309 39.5531C173.259 35.9169 163.383 34.4293 153.232 34.4293ZM94.9318 74.74C118.905 64.07 161.456 57.0547 175.719 72.1873C185.374 81.6818 189.321 88.8624 184.163 101.773C179.757 112.792 171.056 123.829 164.081 132.699L163.824 133.03C156.922 141.79 149.396 151.137 141.117 160.099C134.839 166.876 127.882 173.854 119.548 178.776C112.389 183.055 104.459 185.332 97.0244 185.332C94.9685 185.332 92.9493 185.149 90.9851 184.8C81.4765 183.055 72.8856 177.05 67.4154 168.272C61.8901 159.42 59.9626 148.878 58.9163 140.669C58.7878 139.696 58.6777 138.704 58.5676 137.694C56.7686 120.45 59.0999 107.117 65.6715 96.9613C73.161 85.3548 85.9555 78.7251 94.9318 74.74ZM146.917 65.3739C130.011 65.3739 109.801 70.1304 95.6844 76.4111C81.7518 82.6001 72.7204 89.4501 67.2135 97.953C60.8805 107.76 58.641 120.689 60.4032 137.511C60.495 138.484 60.6235 139.476 60.7336 140.449C61.7616 148.456 63.6339 158.759 68.9757 167.298C74.1706 175.636 82.3209 181.347 91.3156 183C99.888 184.561 109.837 182.449 118.612 177.197C126.744 172.385 133.591 165.535 139.777 158.85C148 149.944 155.508 140.633 162.374 131.891L162.631 131.56C169.551 122.782 178.142 111.855 182.456 101.093C186.788 90.2582 184.915 83.8121 174.415 73.4912L174.397 73.4728C168.982 67.7063 158.757 65.3739 146.917 65.3739ZM137.941 89.3399C147.505 88.5502 153.012 90.0378 154.756 93.8577C157.713 100.281 148.747 111.243 138.353 121.837L137.65 122.551C137.533 122.669 137.415 122.788 137.297 122.907L136.589 123.618C135.88 124.328 135.167 125.036 134.453 125.739C131.902 128.255 129.57 131.12 127.331 133.893C123.935 138.062 120.429 142.359 116.023 145.665C111.985 148.695 106.698 150.568 101.687 150.568C97.2998 150.568 93.1328 149.136 90.2509 145.738C87.5341 142.561 86.2124 137.97 86.3042 132.075C86.4511 124.729 88.8558 118.577 92.2334 113.563C95.5926 108.549 99.9064 104.674 103.835 101.828C113.252 94.9963 126.009 90.3316 137.941 89.3399ZM153.085 94.629C151.745 91.6722 146.569 90.4785 138.088 91.1764C104.11 93.9862 88.4336 116.814 88.1399 132.111C88.0481 137.529 89.2229 141.716 91.646 144.544C97.1529 150.99 108.02 149.374 114.922 144.195C119.144 141.037 122.577 136.813 125.899 132.736C128.175 129.926 130.543 127.024 133.168 124.435C135.575 122.069 139.495 118.21 143.254 113.95L143.845 113.274C144.042 113.048 144.238 112.821 144.433 112.593L145.015 111.906C150.417 105.481 154.894 98.5576 153.085 94.629Z" fill="#575445" fill-opacity="0.14"/>
</svg>
